<?xml version="1.0" standalone="no"?>
<!DOCTYPE svg PUBLIC "-//W3C//DTD SVG 20010904//EN"
 "http://www.w3.org/TR/2001/REC-SVG-20010904/DTD/svg10.dtd">
<svg version="1.0" xmlns="http://www.w3.org/2000/svg"
 width="1339.000000pt" height="1339.000000pt" viewBox="0 0 1339.000000 1339.000000"
 preserveAspectRatio="xMidYMid meet">
<metadata>
Created by potrace 1.11, written by Peter Selinger 2001-2013
</metadata>
<g transform="translate(0.000000,1339.000000) scale(0.100000,-0.100000)"
fill="#000000" stroke="none">
<path d="M4456 12375 c-3 -8 -12 -15 -20 -15 -8 0 -18 -9 -21 -20 -3 -11 -13
-20 -21 -20 -8 0 -14 -3 -14 -8 0 -12 -75 -32 -98 -25 -13 3 -22 1 -22 -6 0
-6 -9 -11 -20 -11 -11 0 -20 -4 -20 -9 0 -5 -13 -11 -30 -14 -18 -4 -30 -13
-30 -22 0 -8 -3 -14 -7 -14 -24 4 -37 -6 -67 -54 -40 -62 -69 -152 -64 -199 3
-28 7 -33 33 -36 58 -6 341 -64 457 -93 215 -54 730 -237 925 -329 125 -60
166 -77 210 -89 35 -9 36 -9 18 5 -11 8 -33 18 -48 21 -22 4 -25 8 -15 15 10
8 9 9 -3 5 -21 -7 -39 16 -92 115 -58 109 -128 217 -161 247 -14 14 -26 29
-26 33 0 11 -121 148 -130 148 -17 0 -91 -74 -86 -86 11 -30 -22 -11 -81 44
-77 73 -159 142 -168 142 -4 0 -25 16 -48 35 -22 19 -45 35 -49 35 -5 0 -24
11 -42 25 -18 14 -39 25 -47 25 -11 0 -11 2 1 10 11 8 8 9 -12 4 -16 -3 -28
-2 -28 4 0 5 -10 12 -22 15 -17 5 -19 9 -10 20 10 12 8 13 -13 9 -14 -2 -22
-8 -19 -13 3 -5 -7 -4 -21 1 -15 6 -39 10 -55 10 -16 0 -32 5 -36 11 -3 6 -15
9 -25 6 -37 -10 -18 17 51 72 24 20 24 20 4 21 -12 0 -24 -7 -28 -15z m29
-118 c60 -10 244 -91 289 -128 71 -57 65 -59 -14 -5 -25 17 -51 32 -59 34 -8
2 -32 12 -54 23 -23 10 -49 19 -59 19 -10 0 -18 5 -18 11 0 5 -3 8 -8 5 -4 -2
-34 2 -67 10 -147 34 -259 10 -345 -75 -30 -30 -61 -55 -67 -57 -16 -3 -17 22
-1 32 7 5 8 3 3 -6 -5 -9 -4 -11 3 -6 7 4 12 14 12 22 0 8 5 14 10 14 6 0 9 5
8 12 -2 7 6 12 17 13 11 0 19 6 18 13 -2 6 1 12 6 12 4 0 20 11 35 25 15 14
36 25 47 25 10 0 19 4 19 9 0 9 169 7 225 -2z m-78 -43 c-3 -3 -12 -4 -19 -1
-8 3 -5 6 6 6 11 1 17 -2 13 -5z m-108 -24 c14 0 41 -36 41 -53 0 -10 -54 -4
-77 8 -15 8 -33 15 -40 15 -7 0 -10 7 -7 15 4 10 13 13 26 9 15 -4 18 -3 13 7
-6 9 -3 11 9 6 10 -4 26 -7 35 -7z m176 0 c-3 -5 -1 -10 6 -10 7 0 10 -3 6 -6
-9 -9 -28 6 -22 17 4 5 8 9 11 9 3 0 2 -4 -1 -10z m-51 -15 c-4 -8 -8 -15 -10
-15 -2 0 -4 7 -4 15 0 8 4 15 10 15 5 0 7 -7 4 -15z m126 -1 c0 -8 -5 -12 -10
-9 -6 4 -8 11 -5 16 9 14 15 11 15 -7z m22 -16 c-7 -7 -12 -8 -12 -2 0 14 12
26 19 19 2 -3 -1 -11 -7 -17z m-146 -36 c-8 -8 -46 19 -46 33 0 11 6 9 25 -7
14 -12 23 -23 21 -26z m74 0 c-12 -4 -50 26 -50 40 0 5 14 -2 31 -14 16 -12
25 -24 19 -26z m76 -20 c-9 -8 -46 20 -46 35 0 13 5 12 25 -7 14 -13 23 -25
21 -28z m44 11 c22 -20 27 -35 7 -27 -13 4 -41 44 -32 44 3 0 14 -8 25 -17z
m75 -43 c8 0 15 -4 15 -10 0 -5 -4 -10 -9 -10 -14 0 -41 29 -41 43 0 7 5 4 11
-5 5 -10 17 -18 24 -18z m165 0 c0 -5 -2 -10 -4 -10 -3 0 -8 5 -11 10 -3 6 -1
10 4 10 6 0 11 -4 11 -10z m35 -20 c3 -5 2 -10 -4 -10 -5 0 -13 5 -16 10 -3 6
-2 10 4 10 5 0 13 -4 16 -10z m30 -30 c3 -5 1 -10 -4 -10 -6 0 -11 5 -11 10 0
6 2 10 4 10 3 0 8 -4 11 -10z m56 -47 c13 -16 12 -17 -3 -4 -10 7 -18 15 -18
17 0 8 8 3 21 -13z m268 -47 c9 -11 8 -15 -5 -20 -20 -8 -39 7 -30 23 10 15
21 14 35 -3z m-179 -37 c0 -6 -4 -7 -10 -4 -5 3 -10 11 -10 16 0 6 5 7 10 4 6
-3 10 -11 10 -16z m143 7 c3 -8 -5 -19 -19 -26 -19 -11 -22 -18 -17 -39 l6
-25 -31 24 c-36 29 -51 56 -26 46 9 -3 27 3 41 14 30 24 39 25 46 6z m44 -121
c0 -8 -4 -12 -8 -9 -4 2 -9 -3 -11 -12 -3 -14 -6 -13 -21 4 -18 20 -18 20 2
15 12 -3 21 -1 21 6 0 6 4 11 8 11 5 0 9 -7 9 -15z m71 -200 c-3 -3 -9 2 -12
12 -6 14 -5 15 5 6 7 -7 10 -15 7 -18z"/>
<path d="M4278 12163 c7 -3 16 -2 19 1 4 3 -2 6 -13 5 -11 0 -14 -3 -6 -6z"/>
<path d="M4370 12370 c-13 -8 -13 -10 2 -10 9 0 20 5 23 10 8 13 -5 13 -25 0z"/>
<path d="M4548 12373 c-9 -2 -19 -11 -22 -19 -7 -19 27 -19 43 0 13 16 4 24
-21 19z"/>
<path d="M4325 12330 c-10 -11 -15 -20 -11 -20 4 0 16 9 28 20 12 11 17 20 11
20 -5 0 -18 -9 -28 -20z"/>
<path d="M4646 12335 c-10 -7 -16 -20 -13 -27 4 -10 6 -10 6 0 1 6 7 12 15 12
8 0 16 7 20 15 7 19 -3 19 -28 0z"/>
<path d="M4475 12300 c4 -6 11 -8 16 -5 14 9 11 15 -7 15 -8 0 -12 -5 -9 -10z"/>
<path d="M4740 12288 c-31 -47 -32 -52 -5 -25 15 15 32 27 37 27 5 0 6 5 3 10
-9 15 -19 12 -35 -12z"/>
<path d="M4842 12240 c-15 -25 -15 -33 0 -28 6 2 13 14 15 26 4 27 1 27 -15 2z"/>
<path d="M4750 12191 c0 -13 25 -20 39 -11 10 5 8 9 -4 14 -23 8 -35 8 -35 -3z"/>
<path d="M4858 12170 c-26 -26 -27 -28 -9 -44 15 -13 18 -14 18 -1 0 8 -4 12
-9 9 -4 -3 -8 0 -8 6 0 7 9 14 20 17 11 3 17 9 14 14 -3 5 2 9 10 9 8 0 18 5
21 10 13 21 -32 6 -57 -20z"/>
<path d="M4941 12174 c0 -11 3 -14 6 -6 3 7 2 16 -1 19 -3 4 -6 -2 -5 -13z"/>
<path d="M4964 12117 l-46 -42 23 -20 c15 -14 20 -15 17 -5 -3 8 12 28 36 48
48 40 52 47 31 56 -11 4 -32 -9 -61 -37z"/>
<path d="M4995 12070 c-3 -5 -2 -10 4 -10 5 0 13 5 16 10 3 6 2 10 -4 10 -5 0
-13 -4 -16 -10z"/>
<path d="M5072 12060 c-44 -27 -61 -65 -40 -87 18 -17 42 -9 35 12 -4 8 10 17
34 25 50 17 56 26 33 51 -21 23 -22 23 -62 -1z"/>
<path d="M5265 9940 c3 -5 8 -10 11 -10 2 0 4 5 4 10 0 6 -5 10 -11 10 -5 0
-7 -4 -4 -10z"/>
<path d="M5200 9874 c0 -8 5 -12 10 -9 6 4 8 11 5 16 -9 14 -15 11 -15 -7z"/>
<path d="M5150 9861 c0 -5 -13 -12 -30 -16 -17 -4 -30 -13 -30 -22 0 -20 43
-10 70 17 24 24 25 30 5 30 -8 0 -15 -4 -15 -9z"/>
<path d="M5055 9770 c-3 -5 -1 -10 4 -10 6 0 11 5 11 10 0 6 -2 10 -4 10 -3 0
-8 -4 -11 -10z"/>
<path d="M4880 9618 c0 -10 -20 -29 -44 -43 -31 -18 -43 -31 -39 -42 3 -8 0
-19 -7 -23 -10 -6 -13 -25 -11 -61 1 -30 -2 -55 -8 -59 -8 -4 1 -20 23 -43 39
-42 46 -45 46 -19 0 9 9 23 20 30 25 16 28 -3 4 -36 -14 -20 -14 -23 0 -28 9
-3 16 -14 17 -23 0 -10 2 -11 6 -3 3 8 10 5 22 -9 l18 -22 16 24 c10 13 17 19
17 14 0 -6 10 6 21 25 12 19 24 37 28 40 3 3 16 25 28 50 19 38 25 94 13 120
-1 3 -2 8 -1 12 0 4 -5 5 -12 2 -7 -2 -19 12 -30 36 -9 22 -24 40 -32 40 -8 0
-15 7 -15 15 0 8 -4 15 -9 15 -5 0 -11 -7 -15 -15 -7 -20 -33 -19 -45 3 -10
16 -10 16 -11 0z m-73 -195 c-3 -10 -5 -2 -5 17 0 19 2 27 5 18 2 -10 2 -26 0
-35z m158 -34 c11 -17 0 -20 -21 -4 -17 13 -17 14 -2 15 9 0 20 -5 23 -11z
m-125 -3 c0 -11 -19 -15 -25 -6 -3 5 1 10 9 10 9 0 16 -2 16 -4z"/>
<path d="M8860 9473 c-49 -19 -53 -100 -11 -189 34 -71 82 -114 130 -114 71 0
76 120 11 224 -16 25 -44 55 -62 66 -34 21 -43 22 -68 13z"/>
<path d="M4030 9145 c0 -9 5 -15 11 -13 6 2 11 8 11 13 0 5 -5 11 -11 13 -6 2
-11 -4 -11 -13z"/>
<path d="M7515 8576 c-65 -30 -97 -80 -96 -151 1 -65 26 -112 79 -146 39 -26
55 -30 94 -26 62 5 96 29 120 84 47 106 -18 228 -132 247 -21 4 -47 0 -65 -8z"/>
<path d="M4101 8404 c0 -11 3 -14 6 -6 3 7 2 16 -1 19 -3 4 -6 -2 -5 -13z"/>
<path d="M4120 8372 c0 -19 27 -38 38 -27 3 3 0 5 -6 5 -7 0 -12 6 -12 14 0 8
-4 18 -10 21 -5 3 -10 -3 -10 -13z"/>
<path d="M11978 6389 c-4 -11 -34 -14 -139 -16 -146 -1 -146 -1 -233 -32 -131
-46 -244 -141 -266 -222 -18 -67 -9 -195 17 -249 41 -82 173 -168 321 -209
172 -47 436 -52 597 -11 118 30 238 94 291 155 53 59 64 93 70 200 l4 80 -14
-45 c-24 -80 -45 -120 -81 -154 -35 -33 -71 -50 -79 -37 -4 6 79 121 96 132
11 7 13 66 4 97 -4 12 -22 26 -42 32 -35 12 -38 30 -4 30 12 0 17 5 14 13 -9
25 38 13 58 -15 29 -42 41 -34 18 12 -42 82 -201 180 -358 220 -109 27 -268
38 -274 19z m-59 -133 c-9 -8 -10 -8 -5 2 4 6 2 12 -3 12 -15 0 -14 27 2 33
16 5 22 -32 6 -47z m-278 -66 c5 0 9 -11 9 -25 0 -18 -5 -25 -19 -25 -11 0
-26 -3 -35 -6 -13 -5 -16 1 -16 26 0 18 4 29 10 25 6 -3 10 -1 10 5 0 7 7 9
16 6 9 -3 20 -6 25 -6z m-267 -95 c-4 -8 -2 -15 4 -15 5 0 15 -21 23 -47 7
-27 22 -60 33 -76 14 -20 17 -30 9 -38 -6 -6 -16 -8 -22 -5 -20 13 -76 156
-61 156 5 0 6 9 3 20 -3 11 0 20 6 20 5 0 8 -7 5 -15z m1136 5 c8 -5 11 -12 7
-16 -4 -4 -15 0 -24 9 -18 18 -8 23 17 7z m-62 -54 c2 -11 -4 -19 -17 -23 -11
-3 -18 -9 -16 -14 3 -4 12 -6 19 -3 8 3 17 1 21 -5 3 -7 -2 -11 -14 -11 -12 0
-21 -7 -21 -15 0 -8 -4 -15 -9 -15 -5 0 -11 -8 -14 -17 -3 -13 -9 -8 -21 20
-9 21 -21 35 -26 32 -6 -4 4 -26 21 -52 25 -35 29 -47 18 -53 -7 -5 -16 -7
-21 -4 -12 8 -48 -34 -49 -58 -1 -16 -3 -18 -6 -6 -2 9 -14 19 -26 21 l-22 4
23 8 c22 7 32 35 12 35 -5 0 -10 -4 -10 -10 0 -19 -17 -10 -30 16 -9 15 -10
28 -5 32 6 4 20 18 32 32 18 21 21 31 14 62 -5 20 -6 40 -2 43 3 4 37 5 76 2
57 -3 71 -7 73 -21z m-981 -152 c-3 -3 -12 -4 -19 -1 -8 3 -5 6 6 6 11 1 17
-2 13 -5z m553 -31 c0 -7 7 -10 15 -7 8 4 15 1 15 -6 0 -8 -9 -10 -25 -6 -16
4 -25 2 -25 -6 0 -9 -3 -9 -12 0 -17 17 -25 15 -31 -8 -3 -11 -10 -20 -16 -20
-17 0 -13 37 5 44 8 3 12 11 9 16 -4 7 6 10 29 8 21 -1 36 -7 36 -15z m-107
-54 c-13 -13 -52 1 -47 16 3 7 14 11 25 8 15 -4 19 0 20 18 2 20 3 19 6 -5 3
-16 1 -32 -4 -37z m164 19 c-3 -8 -6 -5 -6 6 -1 11 2 17 5 13 3 -3 4 -12 1
-19z"/>
<path d="M12391 5994 c0 -11 3 -14 6 -6 3 7 2 16 -1 19 -3 4 -6 -2 -5 -13z"/>
<path d="M9426 5175 c-11 -8 -15 -15 -9 -15 6 0 16 7 23 15 16 19 11 19 -14 0z"/>
<path d="M9332 5128 c-18 -11 -31 -22 -29 -25 6 -6 76 30 77 40 0 11 -12 7
-48 -15z"/>
<path d="M1770 5101 c0 -6 5 -13 10 -16 6 -3 10 1 10 9 0 9 -4 16 -10 16 -5 0
-10 -4 -10 -9z"/>
<path d="M9327 5099 c-9 -5 -21 -8 -26 -5 -5 3 -42 -9 -82 -28 -105 -47 -213
-83 -294 -97 -65 -10 -104 -30 -147 -72 -69 -69 -375 -284 -558 -394 -340
-204 -862 -454 -1185 -568 -16 -5 -17 -5 -5 4 20 14 8 13 -78 -7 -40 -10 -69
-21 -65 -26 4 -4 0 -4 -9 -1 -8 3 -32 -1 -53 -9 -21 -9 -46 -16 -56 -16 -11 0
-19 -4 -19 -8 0 -10 -70 -36 -77 -28 -3 3 -12 -1 -20 -9 -8 -8 -25 -15 -37
-15 -13 0 -29 -6 -35 -14 -7 -8 -26 -14 -43 -14 -16 1 -34 -5 -39 -13 -4 -8
-14 -14 -21 -15 -34 -3 -38 -5 -38 -24 0 -14 -7 -20 -22 -21 -18 -1 -19 -2 -5
-6 16 -4 17 -13 13 -69 -4 -41 -2 -64 5 -64 6 0 9 -6 6 -12 -2 -7 -9 -12 -15
-11 -8 2 -9 -5 -2 -21 5 -13 7 -26 5 -28 -2 -2 -11 -70 -21 -152 -12 -109 -14
-150 -5 -159 14 -14 15 -127 1 -127 -5 0 -10 -5 -10 -11 0 -5 3 -8 8 -6 4 3 8
-36 9 -86 1 -55 6 -93 12 -95 6 -2 10 -20 10 -40 -1 -24 -3 -29 -6 -14 -8 42
-18 22 -17 -36 4 -158 -33 -335 -91 -432 -62 -105 -85 -132 -159 -191 -134
-108 -340 -188 -566 -219 -96 -14 -344 -14 -438 0 -219 31 -412 102 -540 198
-60 45 -145 149 -138 168 14 36 -126 -37 -245 -128 -90 -68 -129 -112 -165
-184 -39 -80 -42 -140 -9 -210 15 -33 34 -73 42 -90 8 -17 23 -41 33 -52 11
-12 20 -25 20 -29 0 -14 70 -54 82 -47 7 4 8 3 4 -4 -6 -10 83 -64 101 -61 23
4 43 -2 38 -11 -6 -10 24 -19 60 -18 11 0 37 -2 57 -5 23 -3 39 -1 42 6 3 9 7
9 13 1 4 -6 19 -11 32 -10 13 0 26 -5 28 -11 3 -8 -5 -13 -21 -13 -14 0 -26
-4 -26 -10 0 -14 -40 -6 -51 11 -6 10 -10 6 -15 -18 -6 -30 -24 -47 -24 -23 0
6 -4 10 -10 10 -5 0 -9 -6 -7 -12 1 -10 -17 -12 -70 -11 -81 2 -120 18 -201
83 -29 22 -52 37 -52 32 0 -10 83 -97 121 -127 14 -11 33 -40 43 -65 10 -25
28 -64 42 -87 26 -45 33 -79 9 -47 -11 14 -14 15 -15 4 0 -24 71 -111 125
-153 140 -109 381 -177 626 -177 396 0 743 152 872 383 32 57 30 75 -3 23 -12
-20 -27 -36 -33 -36 -8 0 -9 3 -1 8 6 4 26 39 45 77 31 64 33 78 34 165 0 119
-20 166 -116 264 -47 48 -69 79 -74 103 -5 30 -4 34 12 31 16 -4 258 113 378
183 72 41 91 39 99 -13 10 -61 76 -193 132 -265 46 -57 165 -163 185 -163 5 0
9 5 9 10 0 6 -5 10 -12 10 -6 0 -8 3 -5 6 8 9 38 -16 32 -25 -2 -4 1 -8 8 -8
7 0 39 -13 72 -28 52 -24 57 -29 40 -36 -16 -8 -15 -8 6 -4 15 3 44 -2 64 -11
21 -8 44 -13 52 -10 8 3 11 2 8 -3 -7 -12 31 -24 46 -15 8 5 9 3 4 -6 -6 -10
-3 -12 14 -7 13 3 20 3 17 -1 -10 -10 103 -30 236 -42 201 -19 427 7 584 66
69 26 214 96 237 114 7 5 39 30 72 56 70 54 87 73 78 87 -3 6 -1 7 4 4 12 -8
95 97 86 107 -4 3 -2 6 4 6 6 0 13 8 17 18 3 9 15 37 26 62 19 41 20 42 14 11
-25 -134 -186 -307 -386 -412 -132 -70 -108 -70 37 1 100 48 173 108 263 214
18 21 36 35 39 32 3 -3 27 17 53 44 54 56 46 58 115 -25 47 -56 97 -105 108
-105 22 0 0 -20 -60 -54 -89 -50 -135 -85 -128 -97 3 -5 0 -6 -8 -3 -9 3 -24
-7 -36 -23 -12 -15 -40 -50 -62 -78 -22 -27 -51 -74 -66 -103 -23 -47 -25 -60
-21 -145 3 -63 10 -103 23 -127 10 -20 19 -61 21 -94 2 -44 7 -64 23 -80 l21
-20 0 37 c0 20 5 37 10 37 6 0 10 -4 10 -8 0 -15 64 -75 113 -104 26 -17 47
-34 47 -39 0 -5 3 -8 8 -7 15 3 42 -15 42 -28 0 -11 7 -13 26 -8 18 5 25 3 20
-4 -4 -6 2 -8 16 -5 15 3 19 2 11 -4 -7 -5 2 -9 26 -9 34 -1 29 3 -61 48 -117
58 -240 153 -234 179 0 3 -5 13 -13 22 -7 10 -9 17 -3 17 6 0 13 -6 16 -12 5
-10 7 -10 12 0 8 17 24 5 18 -13 -4 -8 -11 -12 -18 -9 -6 3 11 -15 38 -40 27
-25 54 -44 60 -43 6 1 10 -4 9 -10 -2 -7 9 -16 25 -19 15 -4 35 -14 45 -22 9
-8 17 -12 17 -9 0 4 9 -1 20 -11 12 -9 24 -17 28 -18 4 0 27 -10 52 -22 25
-12 59 -22 76 -22 16 0 34 -4 40 -9 5 -5 71 -17 147 -26 174 -22 373 -15 497
16 97 24 176 53 205 73 17 12 53 30 80 41 94 34 209 139 253 228 34 70 51 137
33 137 -14 0 -14 47 0 56 17 10 3 78 -29 137 -36 70 -37 71 -21 62 15 -9 -7
20 -55 73 -17 17 -24 32 -17 32 21 0 170 78 213 112 42 33 102 95 127 130 7
11 -15 -3 -49 -30 -68 -55 -170 -109 -269 -141 -35 -12 -66 -21 -68 -21 -1 0
-3 29 -3 65 0 72 -19 91 -22 23 l-1 -43 -4 37 c-2 21 -8 38 -13 38 -5 0 -7
-14 -5 -30 2 -17 0 -28 -6 -25 -5 4 -9 15 -9 26 0 22 -23 25 -43 5 -11 -11
-17 -12 -27 -3 -10 9 -14 9 -17 0 -2 -7 -11 -9 -19 -6 -8 3 -14 -1 -14 -8 0
-11 -3 -11 -11 1 -7 10 -12 11 -15 4 -3 -6 -18 -10 -34 -8 -16 2 -32 -1 -35
-6 -4 -6 -11 -7 -17 -4 -6 4 -14 0 -19 -7 -5 -8 -9 -9 -9 -4 0 7 -49 11 -140
10 -77 0 -140 2 -140 5 0 3 -12 5 -27 5 -16 -1 -32 1 -38 4 -5 3 -23 7 -40 7
-48 2 -233 51 -273 73 -20 11 -57 29 -82 41 -34 16 -41 23 -30 30 11 7 11 10
2 10 -7 0 -15 -7 -19 -15 -5 -13 -8 -13 -20 4 -7 11 -43 37 -79 57 -74 41 -82
58 -10 19 55 -29 63 -31 45 -8 -13 15 -12 15 18 0 17 -9 35 -22 39 -28 4 -7
-1 -7 -16 1 -32 17 -35 6 -4 -15 20 -13 28 -14 34 -5 6 10 12 8 25 -7 11 -13
25 -19 38 -15 13 3 18 1 13 -6 -3 -6 2 -16 13 -21 29 -16 37 -13 15 5 -17 15
-17 15 6 0 47 -30 95 -48 130 -50 19 0 37 -4 40 -8 12 -15 259 -37 264 -23 2
6 11 6 25 -2 11 -7 29 -13 38 -12 11 0 13 3 5 6 -6 2 -9 9 -6 15 4 5 14 2 25
-7 14 -14 33 -16 95 -13 45 2 79 8 81 15 2 6 14 9 26 6 14 -3 18 -2 10 4 -8 5
-9 14 -3 23 7 12 12 12 22 2 14 -14 48 -16 48 -4 0 5 10 14 23 21 l22 12 -24
-5 c-13 -3 -34 0 -45 6 -17 9 -19 8 -8 -3 19 -20 14 -31 -8 -19 -12 6 -31 8
-43 4 -18 -6 -20 -5 -10 8 10 11 10 17 1 26 -9 9 -9 12 0 12 7 0 12 -4 12 -10
0 -15 17 -12 23 4 5 12 -6 14 -56 10 -53 -3 -59 -1 -45 10 13 10 15 15 6 24
-9 9 -8 12 5 12 18 0 23 15 8 25 -11 6 -43 -34 -35 -46 2 -4 -1 -11 -7 -15 -7
-4 -9 -3 -5 4 3 6 2 14 -4 17 -6 4 -10 3 -9 -2 6 -35 -2 -43 -45 -43 -39 0
-44 -2 -39 -20 5 -18 2 -19 -26 -14 -20 4 -31 3 -31 -5 0 -6 7 -11 15 -11 8 0
15 -4 15 -8 0 -5 -13 -9 -30 -9 -16 0 -27 4 -24 8 2 4 0 10 -5 13 -5 3 -11 -1
-14 -8 -3 -8 -1 -17 6 -20 7 -2 -4 -2 -23 1 -19 4 -37 10 -38 15 -2 5 -10 4
-18 -3 -21 -17 -28 -4 -9 15 20 20 34 20 41 1 8 -21 24 -19 24 3 0 26 -52 27
-76 1 -21 -23 -34 -24 -34 -3 0 11 -6 14 -20 9 -25 -8 -50 10 -50 36 0 13 -10
20 -35 25 -19 3 -38 11 -42 17 -4 6 4 7 23 3 64 -16 96 -18 103 -7 6 9 24 9
64 3 32 -5 57 -6 57 -2 0 9 -51 20 -91 20 -16 0 -29 5 -29 10 0 6 -24 11 -52
11 -29 1 -42 4 -29 6 l24 5 -24 12 c-13 7 -39 12 -56 11 -29 -1 -33 2 -33 27
0 15 4 29 9 32 5 3 7 15 4 26 -4 17 0 20 25 20 40 0 51 -17 15 -23 -26 -4 -26
-4 5 -6 17 0 32 4 32 9 0 6 6 10 13 10 7 -1 3 -8 -8 -18 -24 -20 -39 -52 -25
-52 6 0 10 4 10 10 0 5 14 7 33 4 26 -4 29 -3 14 6 -22 14 -12 33 14 25 10 -3
29 -8 40 -11 13 -4 19 -2 15 4 -3 5 1 13 10 16 24 9 31 7 14 -5 -11 -8 -8 -9
13 -4 33 7 59 -9 50 -32 -3 -9 -2 -14 3 -12 5 3 22 11 37 19 22 11 30 11 36 2
8 -14 41 -6 41 10 0 5 5 6 10 3 6 -3 10 -1 10 4 0 14 37 14 45 1 3 -5 12 -10
18 -10 7 0 6 4 -3 10 -13 9 -13 10 0 11 8 0 0 5 -19 11 -21 6 -36 6 -40 0 -3
-5 -20 -13 -38 -16 -31 -7 -32 -6 -31 24 1 18 -3 35 -8 38 -5 4 -10 16 -12 27
-2 16 -1 17 7 5 6 -8 22 -15 36 -15 24 -1 25 0 9 12 -9 7 -22 14 -28 16 -8 3
-7 12 3 28 l14 24 -22 -20 c-19 -16 -24 -17 -31 -5 -6 9 -5 17 3 22 8 5 6 8
-5 8 -10 0 -18 -4 -18 -10 0 -5 -7 -7 -15 -4 -10 4 -15 0 -15 -11 0 -12 5 -15
20 -10 11 3 20 2 20 -3 0 -5 -9 -12 -21 -15 -21 -6 -34 12 -27 35 3 7 -2 19
-11 26 -14 11 -13 12 6 3 30 -15 43 -14 43 4 0 9 6 12 18 8 11 -4 8 1 -8 15
-27 23 -21 29 11 12 17 -10 18 -8 10 13 -8 21 -5 25 25 36 19 7 34 16 34 22 0
5 -31 -8 -70 -27 -38 -20 -70 -40 -70 -44 0 -4 -24 -19 -54 -34 -74 -37 -101
-68 -87 -95 14 -26 0 -27 -23 -2 -15 16 -15 22 -4 40 7 12 15 21 18 21 15 0
115 72 112 81 -1 6 2 7 8 4 6 -4 19 -1 28 7 9 8 47 32 84 54 78 46 98 69 61
72 -13 1 -26 -5 -29 -13 -4 -8 -10 -12 -15 -9 -5 3 -7 10 -4 15 4 5 -1 9 -11
9 -11 0 -15 -6 -11 -20 4 -16 1 -18 -23 -14 -20 5 -33 0 -50 -18 -13 -13 -21
-17 -18 -8 3 8 20 25 39 37 65 42 119 84 119 92 0 5 -9 11 -20 14 -29 8 -24
23 8 22 24 0 27 3 26 32 -1 18 1 32 5 31 14 -3 61 15 61 23 0 5 7 5 17 2 10
-4 14 -2 10 4 -7 10 22 11 39 1 5 -4 16 -3 23 1 7 5 9 11 4 14 -14 9 -261 10
-348 2 -114 -10 -286 -51 -352 -83 -10 -5 -44 -21 -75 -37 -64 -31 -158 -110
-158 -133 0 -9 -3 -12 -6 -9 -4 4 -18 -17 -31 -46 -44 -93 -18 -221 60 -297
37 -35 53 -67 19 -37 -10 10 -21 14 -24 11 -4 -3 -9 4 -13 15 -4 13 -11 19
-18 15 -7 -4 -9 -4 -5 0 3 4 -8 31 -25 59 -31 53 -47 146 -33 200 6 27 68 120
100 153 79 79 253 162 406 193 30 6 75 15 100 21 43 9 42 9 -15 4 -178 -16
-411 -113 -518 -217 -84 -82 -133 -182 -138 -282 -1 -18 -5 -9 -10 25 -4 30
-10 70 -13 88 -2 17 -12 46 -20 64 -9 17 -16 37 -16 45 0 8 -5 11 -12 7 -7 -4
-8 -3 -4 4 11 18 -64 120 -137 189 -77 72 -131 110 -213 152 -33 17 -69 40
-80 52 -27 31 -144 104 -211 133 -56 23 -57 25 -68 77 -19 89 -42 129 -118
203 -79 79 -181 138 -304 177 l-72 23 30 18 c16 10 38 18 48 18 10 0 26 9 37
21 14 15 26 19 47 15 23 -5 33 -1 49 19 15 19 25 24 44 19 15 -4 24 -2 24 6 0
7 7 10 15 7 8 -4 17 -2 20 2 2 5 21 12 41 16 20 3 44 10 53 15 9 5 37 18 64
29 26 11 47 24 47 30 0 6 7 8 16 4 10 -4 22 1 30 11 7 10 17 15 23 11 6 -3 11
2 12 12 0 10 3 13 6 6 7 -19 43 -16 43 3 0 10 6 14 14 11 8 -3 17 1 20 9 3 8
18 14 35 14 16 0 33 5 36 10 3 6 0 10 -7 10 -9 0 -9 3 2 10 8 5 25 7 37 4 14
-4 29 2 43 16 12 12 36 26 53 32 18 6 40 20 49 32 16 18 19 19 29 6 8 -11 12
-12 16 -2 2 6 10 12 17 12 8 0 25 9 39 21 15 11 32 19 39 18 23 -3 38 1 36 9
-6 15 39 60 58 59 13 -1 19 4 18 16 -2 13 3 16 17 12 10 -4 19 -2 19 4 0 5 20
19 45 30 47 21 77 44 74 58 0 4 13 12 30 18 19 6 31 16 31 27 0 12 5 15 16 11
9 -3 24 6 41 26 14 17 31 31 36 31 6 0 18 6 26 13 9 8 38 22 66 32 27 10 58
29 68 42 10 13 27 23 38 23 10 0 19 4 19 10 0 9 57 38 90 45 8 2 29 9 45 16
17 7 41 14 55 16 14 2 29 8 35 14 5 5 17 9 27 9 10 0 26 4 36 10 30 18 174 60
183 54 5 -3 21 4 35 15 15 12 31 21 36 21 21 0 227 106 298 153 71 47 155 125
146 134 -2 2 -35 -11 -72 -30 -63 -32 -200 -80 -256 -91 -13 -2 -45 -10 -72
-17 -38 -9 -51 -9 -54 -1 -2 7 -11 12 -20 12 -15 0 -15 -2 -2 -10 13 -8 12
-10 -2 -10 -11 0 -18 8 -18 20 0 11 5 20 10 20 6 0 10 5 10 10 0 6 -7 10 -15
10 -8 0 -15 4 -15 9 0 5 8 8 18 7 11 -1 17 6 17 19 0 11 6 26 13 33 6 7 12 22
12 33 0 12 10 23 25 29 28 11 29 14 15 39 -12 23 -60 24 -77 2 -11 -14 -12
-13 -13 7 0 12 -6 22 -14 22 -19 0 -18 52 2 66 10 7 13 20 10 38 -4 19 -2 24
5 17 7 -7 17 4 33 37 17 34 19 49 11 55 -8 6 -4 7 9 4 13 -3 21 1 21 9 0 16
-6 17 -30 3z m-2877 -1499 c0 -5 -5 -10 -11 -10 -5 0 -7 5 -4 10 3 6 8 10 11
10 2 0 4 -4 4 -10z m785 -640 c-3 -5 -10 -10 -16 -10 -5 0 -9 5 -9 10 0 6 7
10 16 10 8 0 12 -4 9 -10z m40 0 c3 -5 -1 -10 -9 -10 -9 0 -16 5 -16 10 0 6 4
10 9 10 6 0 13 -4 16 -10z m105 -10 c24 -8 24 -8 -5 -8 -16 0 -43 4 -60 8
l-30 8 35 0 c19 0 46 -4 60 -8z m-391 -14 c-2 -2 -22 -7 -44 -10 l-40 -6 40
13 c36 12 55 13 44 3z m521 -103 c80 -9 150 -22 157 -29 6 -6 23 -9 36 -7 14
3 28 0 31 -6 4 -6 16 -11 27 -11 11 0 28 -7 36 -16 9 -8 24 -13 34 -11 11 3
19 2 19 -3 0 -4 11 -11 25 -14 14 -4 25 -11 25 -16 0 -13 1 -14 -66 16 -33 14
-70 28 -84 30 l-25 4 25 -15 c32 -19 25 -18 -39 1 -207 61 -546 60 -761 -3
-30 -9 -62 -16 -70 -16 -8 0 -21 -6 -28 -14 -7 -7 -19 -13 -25 -13 -7 0 -6 4
3 10 25 16 -7 12 -41 -6 -17 -8 -33 -14 -35 -11 -6 5 100 52 171 76 79 26 218
51 330 61 50 4 95 8 100 9 6 1 75 -6 155 -16z m490 -170 c9 -9 -4 -6 -28 8
-24 13 -48 30 -55 37 -14 18 63 -25 83 -45z m-1330 -7 c0 -2 -7 -7 -16 -10 -8
-3 -12 -2 -9 4 6 10 25 14 25 6z m816 -11 c44 -8 95 -17 114 -20 48 -8 103
-28 115 -41 6 -7 27 -17 48 -24 20 -6 37 -15 37 -20 0 -4 10 -10 22 -13 12 -4
19 -9 16 -12 -3 -4 -32 7 -65 23 -32 17 -76 36 -98 42 -22 7 -51 16 -65 21
-37 12 -134 27 -225 34 -93 7 -229 -7 -333 -36 -74 -21 -111 -19 -56 1 28 11
163 44 214 53 58 10 204 6 276 -8z m568 -20 c11 -8 16 -15 10 -15 -5 0 -18 7
-28 15 -11 8 -16 15 -10 15 5 0 18 -7 28 -15z m61 -46 c11 -17 -1 -21 -15 -4
-8 9 -8 15 -2 15 6 0 14 -5 17 -11z m-1165 -9 c-8 -5 -19 -10 -25 -10 -5 0 -3
5 5 10 8 5 20 10 25 10 6 0 3 -5 -5 -10z m749 -40 c-5 -16 -13 -43 -18 -60 -6
-18 -6 -32 0 -35 13 -9 11 -25 -3 -22 -7 1 -14 -8 -16 -20 -2 -14 2 -23 9 -23
8 0 5 -5 -5 -13 -21 -15 -36 -107 -18 -107 7 0 10 12 8 28 -2 15 -1 19 1 9 4
-15 7 -16 19 -6 13 11 13 9 2 -17 -7 -16 -18 -33 -25 -39 -16 -13 10 -50 28
-39 9 5 10 2 4 -12 -5 -10 -9 -33 -9 -51 0 -32 0 -32 -17 -12 -25 30 -48 249
-25 249 4 0 5 11 2 24 -3 14 -1 26 5 28 6 2 12 17 13 33 2 17 6 37 9 45 4 8
11 27 16 43 14 38 32 35 20 -3z m326 20 c3 -5 -1 -10 -9 -10 -9 0 -16 5 -16
10 0 6 4 10 9 10 6 0 13 -4 16 -10z m-515 -40 c-8 -6 -24 -9 -35 -9 -15 0 -13
4 10 14 32 14 49 10 25 -5z m83 -8 c-17 -18 -45 -32 -59 -31 -4 0 -10 -4 -13
-9 -8 -12 -86 -52 -103 -52 -20 0 2 16 92 64 93 50 110 55 83 28z m602 -2 c10
-11 15 -20 12 -20 -4 0 -16 9 -27 20 -11 11 -16 20 -12 20 5 0 17 -9 27 -20z
m-1734 -63 c-19 -18 -30 -25 -26 -17 13 25 48 60 54 55 3 -3 -10 -20 -28 -38z
m1169 33 c0 -5 -5 -10 -11 -10 -5 0 -7 5 -4 10 3 6 8 10 11 10 2 0 4 -4 4 -10z
m-890 -23 c0 -2 -10 -12 -22 -23 l-23 -19 19 23 c18 21 26 27 26 19z m2425
-27 c-3 -5 -11 -10 -16 -10 -6 0 -7 5 -4 10 3 6 11 10 16 10 6 0 7 -4 4 -10z
m-2101 -15 c-4 -10 -13 -13 -25 -10 -11 4 -19 2 -19 -5 0 -6 -4 -8 -10 -5 -18
11 -10 24 18 28 15 2 30 5 34 6 4 0 5 -6 2 -14z m487 -12 c-12 -20 -14 -14 -5
12 4 9 9 14 11 11 3 -2 0 -13 -6 -23z m309 17 c0 -5 -2 -10 -4 -10 -3 0 -8 5
-11 10 -3 6 -1 10 4 10 6 0 11 -4 11 -10z m-1228 -17 c-6 -3 -10 -8 -7 -12 2
-5 -10 -8 -28 -9 -27 -1 -30 1 -16 11 9 7 27 13 40 14 13 0 18 -1 11 -4z m748
-11 c0 -5 -10 -14 -22 -20 -14 -7 -17 -11 -8 -11 10 -1 15 -12 16 -31 1 -16
-3 -27 -9 -23 -5 3 -7 -3 -3 -14 4 -14 -3 -27 -25 -47 -30 -27 -45 -34 -81
-35 -10 -1 -18 -6 -18 -12 0 -7 7 -8 18 -4 27 10 115 14 105 4 -4 -4 -26 -12
-48 -17 l-40 -9 38 -8 c20 -4 37 -11 37 -15 0 -4 15 -14 33 -20 l32 -12 -25
-9 c-22 -8 -21 -8 8 -4 17 2 32 0 32 -5 0 -6 -8 -10 -18 -10 -10 0 -33 -8 -52
-18 -34 -16 -36 -16 -53 1 -12 12 -25 16 -40 11 -23 -7 -67 -44 -67 -56 0 -4
26 -20 58 -35 31 -15 60 -31 63 -36 8 -11 70 -27 80 -21 14 8 10 34 -5 34 -8
0 -16 7 -20 15 -3 8 -12 15 -21 15 -8 0 -15 5 -15 10 0 6 7 10 16 10 10 0 14
5 10 15 -3 10 1 18 12 21 35 11 67 29 79 44 11 13 12 13 13 -1 0 -16 51 -59
70 -59 9 0 35 -51 28 -54 -2 0 -13 -6 -24 -13 -16 -9 -24 -9 -33 0 -9 9 -16 8
-31 -1 -11 -7 -20 -8 -20 -3 0 6 4 13 10 16 10 6 -6 42 -25 58 -5 5 1 5 15 1
14 -3 30 -11 37 -16 7 -5 14 -5 18 2 3 5 -1 10 -9 10 -8 0 -22 10 -30 21 -14
20 -16 20 -31 5 -9 -9 -25 -16 -36 -16 -11 0 -19 -7 -19 -17 0 -13 3 -14 12
-5 19 19 28 14 28 -13 0 -14 4 -25 9 -25 6 0 8 -9 6 -20 -3 -16 2 -20 21 -20
16 0 24 -5 21 -12 -2 -7 -17 -12 -32 -11 -32 2 -22 -13 11 -19 15 -2 33 8 53
30 17 17 38 32 46 32 8 0 15 5 15 10 0 6 7 10 15 10 8 0 15 -7 15 -15 0 -16
62 -47 118 -60 21 -4 32 -3 32 4 0 6 -17 12 -37 12 -31 2 -33 3 -10 6 16 3 25
9 21 15 -4 7 4 8 24 3 18 -3 33 -2 37 4 4 7 -13 11 -51 11 -47 0 -55 2 -45 14
9 10 8 15 -4 20 -11 4 -15 -2 -15 -24 0 -19 -5 -30 -14 -30 -12 0 -13 7 -5 32
13 48 11 58 -11 58 -21 0 -27 -15 -10 -25 6 -4 8 -11 4 -16 -3 -6 -15 6 -26
26 -10 21 -17 40 -14 43 3 3 6 0 6 -6 0 -7 10 -12 21 -12 17 0 20 5 16 21 -6
21 -5 21 19 -2 13 -12 24 -28 24 -35 0 -7 9 -16 20 -19 11 -3 20 -13 20 -22 0
-13 3 -13 15 -3 8 7 22 9 32 5 33 -14 63 -11 63 5 0 13 1 13 10 0 6 -9 10 -10
10 -3 0 11 58 28 76 23 4 -1 13 13 21 30 10 25 18 31 33 27 17 -4 20 -2 14 15
-4 14 -2 18 5 14 7 -4 11 1 11 13 0 12 6 21 13 21 9 0 13 12 13 35 -1 31 -4
35 -29 35 -24 0 -27 -3 -22 -19 12 -38 -68 -150 -108 -152 -7 0 -31 -2 -53 -5
-24 -3 -45 -1 -48 5 -4 5 -12 9 -19 7 -7 -1 -9 -1 -4 1 4 3 7 12 7 21 0 12 -3
13 -12 4 -14 -14 -28 -16 -28 -3 0 14 39 20 48 8 10 -17 53 -40 60 -33 3 4 6
22 6 41 1 32 16 52 16 23 1 -8 6 -6 14 5 12 16 36 24 36 11 0 -3 -5 -14 -10
-25 -8 -13 -7 -19 0 -19 6 0 13 6 16 14 3 8 14 16 25 19 20 5 24 35 10 72 -8
19 -8 19 -16 -5 -5 -15 -4 -25 4 -28 10 -3 16 -32 6 -32 -2 0 -15 11 -29 25
-25 25 -25 26 -6 38 28 17 25 30 -5 23 -18 -5 -25 -2 -25 9 0 14 11 19 38 16
6 -1 12 7 12 18 0 16 8 20 49 23 46 3 48 2 41 -18 -6 -14 -4 -21 5 -21 7 0 11
6 8 14 -3 7 -1 13 5 13 5 0 15 -28 21 -62 13 -78 -5 -167 -53 -253 -32 -59
-75 -90 -64 -47 4 14 2 19 -7 16 -7 -3 -11 -14 -7 -26 3 -14 1 -19 -6 -14 -7
4 -20 2 -29 -4 -15 -9 -14 -10 6 -4 18 5 22 3 15 -7 -6 -11 -5 -11 9 0 10 8
20 11 23 8 3 -3 -22 -28 -56 -56 -47 -39 -67 -50 -83 -46 -16 5 -18 4 -8 -3
11 -8 2 -16 -37 -36 -124 -63 -348 -116 -413 -98 -21 6 -26 11 -14 11 18 1 17
3 -5 14 -14 7 -31 25 -38 41 -9 17 -19 25 -28 22 -8 -3 -12 -2 -9 3 3 5 -4 12
-15 16 -11 3 -20 11 -20 16 0 6 -4 7 -10 4 -6 -4 -7 1 -3 10 9 26 58 11 101
-31 35 -34 72 -60 72 -50 0 2 -43 47 -96 100 -88 89 -124 113 -124 85 0 -14
-50 -3 -69 16 -12 11 -12 17 -2 29 7 8 10 20 6 27 -5 7 -1 9 11 7 11 -2 18
-10 16 -17 -1 -7 2 -10 8 -6 5 3 10 1 10 -4 0 -6 7 -11 15 -11 21 0 19 18 -5
32 -24 15 -25 31 -4 52 8 9 11 16 5 16 -5 0 -13 -5 -16 -10 -4 -6 -10 -8 -15
-5 -4 3 -13 -2 -20 -10 -7 -8 -20 -15 -30 -15 -10 0 -23 -7 -30 -15 -10 -12
-10 -15 2 -15 8 0 18 4 24 10 6 6 10 3 11 -10 1 -16 -5 -20 -30 -20 l-32 -1
30 -13 30 -14 -28 -11 c-19 -7 -34 -8 -47 -1 -10 5 -25 10 -32 10 -7 -1 5 -9
27 -20 l40 -19 -28 -10 c-36 -14 -34 -14 -67 9 -23 17 -30 18 -39 6 -9 -11 -6
-15 13 -20 13 -3 37 -19 53 -36 27 -29 63 -40 63 -20 0 6 -3 9 -7 8 -14 -2
-43 14 -43 24 0 7 12 8 33 3 17 -4 40 -7 49 -7 11 1 15 -5 11 -14 -3 -8 0 -14
6 -14 6 0 11 4 11 10 0 5 8 7 18 3 13 -5 12 -2 -5 13 -24 22 -42 69 -23 62 26
-8 109 -84 108 -98 -1 -30 2 -40 15 -40 7 0 14 -11 15 -26 3 -38 20 -63 42
-61 21 1 26 12 10 22 -12 7 -13 35 -2 35 4 0 15 -16 24 -35 17 -37 14 -41 -32
-37 -60 5 -225 44 -238 57 -20 20 -5 47 33 59 22 6 80 -38 70 -54 -3 -5 0 -12
6 -16 6 -3 15 -1 19 6 5 8 -6 25 -29 47 -43 41 -71 58 -71 43 0 -5 -7 -10 -15
-10 -8 0 -15 -4 -15 -9 0 -5 -10 -11 -21 -14 -26 -7 -69 21 -66 43 1 8 -3 14
-9 13 -7 -1 -20 7 -29 17 -10 11 -28 20 -39 20 -18 -1 -17 -4 13 -30 19 -16
33 -32 30 -34 -3 -3 -20 8 -39 24 -19 17 -39 30 -45 30 -5 0 -3 5 5 10 8 5 11
10 5 11 -5 0 -20 2 -33 3 -19 2 -16 -3 20 -36 49 -44 21 -34 -31 11 -31 27
-33 32 -20 48 13 17 13 17 -4 4 -15 -12 -20 -12 -30 -1 -8 9 -8 11 -1 7 7 -4
14 -1 17 7 7 17 -19 30 -27 13 -3 -7 -3 -1 1 13 5 21 4 23 -9 12 -13 -10 -18
-8 -32 12 -9 14 -16 32 -16 40 0 8 -5 16 -10 18 -6 2 -12 17 -15 33 -2 17 -7
40 -11 53 -6 19 -3 22 23 22 34 0 53 -16 46 -39 -3 -12 -1 -11 11 3 9 11 16
14 16 8 0 -7 7 -12 15 -12 27 0 16 16 -22 35 -21 10 -45 21 -53 25 -8 4 -14
15 -14 23 1 9 -4 13 -12 10 -10 -4 -14 4 -14 27 0 21 4 30 13 27 6 -2 11 -10
9 -16 -1 -6 2 -11 8 -11 6 0 10 -7 10 -16 0 -10 6 -14 15 -11 8 4 23 -5 35
-20 11 -14 20 -20 20 -14 0 12 67 9 149 -6 26 -4 32 -3 26 7 -6 10 1 11 30 6
31 -6 40 -4 52 13 8 12 21 21 28 21 22 0 79 37 64 42 -7 2 -10 9 -6 15 11 17
78 -8 72 -28 -3 -9 1 -22 10 -29 18 -15 20 -30 2 -30 -18 0 -38 36 -30 56 5
13 -1 13 -36 -5 -43 -22 -55 -37 -21 -26 21 7 47 -12 52 -36 2 -8 13 -22 26
-32 30 -25 28 -32 -15 -50 -27 -12 -32 -16 -17 -16 12 -1 33 8 47 19 14 11 31
20 38 20 7 0 3 10 -11 25 -13 14 -20 28 -16 32 4 4 11 2 15 -6 7 -11 13 -10
32 1 31 17 38 28 32 46 -4 9 -15 12 -34 8 -24 -4 -29 -2 -29 13 0 11 -6 21
-12 24 -15 5 34 27 61 27 9 0 26 6 36 14 11 8 25 12 31 9 7 -2 15 0 19 6 3 7
0 8 -9 5 -9 -3 -16 -1 -16 5 0 6 12 14 26 17 22 6 25 11 23 44 -2 21 3 45 10
54 14 17 31 21 31 8z m-835 -12 c3 -5 1 -10 -4 -10 -6 0 -11 5 -11 10 0 6 2
10 4 10 3 0 8 -4 11 -10z m256 -24 c-6 -8 -10 -19 -9 -26 2 -7 -2 -14 -8 -17
-7 -2 -11 4 -10 14 1 19 27 55 34 48 3 -3 0 -11 -7 -19z m81 10 c16 -12 15
-13 -11 -12 -18 1 -27 5 -24 14 6 15 13 15 35 -2z m113 4 c-28 -12 -47 -12
-40 0 3 6 18 10 33 9 24 0 25 -1 7 -9z m939 2 c2 -4 -7 -8 -22 -9 -24 -2 -24
-1 -7 7 11 5 21 9 22 9 1 1 4 -3 7 -7z m50 -17 c9 -13 16 -27 16 -31 0 -10
-30 17 -41 38 -15 27 6 22 25 -7z m-1581 -13 c-3 -12 -9 -22 -14 -22 -12 0
-11 7 2 32 13 25 20 19 12 -10z m1380 9 c11 7 17 7 17 -1 0 -23 -32 -22 -53 1
-18 19 -18 20 -2 7 14 -12 25 -14 38 -7z m-1053 -43 c0 -5 -11 2 -25 16 -14
14 -25 28 -25 32 0 4 11 -3 25 -16 14 -13 25 -27 25 -32z m720 36 c0 -14 -3
-14 -15 -4 -8 7 -15 14 -15 16 0 2 7 4 15 4 8 0 15 -7 15 -16z m1705 6 c-3 -5
-12 -10 -18 -10 -7 0 -6 4 3 10 19 12 23 12 15 0z m-1950 -8 c12 -8 13 -37 2
-48 -7 -7 -10 9 -4 22 1 3 -9 12 -23 19 -22 13 -23 14 -5 14 11 1 25 -3 30 -7z
m475 -2 c0 -5 -4 -10 -10 -10 -5 0 -10 5 -10 10 0 6 5 10 10 10 6 0 10 -4 10
-10z m1500 0 c0 -5 -5 -10 -11 -10 -5 0 -7 5 -4 10 3 6 8 10 11 10 2 0 4 -4 4
-10z m-2615 -10 c-3 -5 -10 -10 -16 -10 -5 0 -9 5 -9 10 0 6 7 10 16 10 8 0
12 -4 9 -10z m195 0 c0 -5 -4 -10 -10 -10 -5 0 -10 5 -10 10 0 6 5 10 10 10 6
0 10 -4 10 -10z m280 -15 c-7 -9 -15 -13 -17 -11 -6 6 20 36 26 30 2 -2 -2
-10 -9 -19z m900 10 c-7 -9 -15 -13 -17 -11 -7 7 7 26 19 26 6 0 6 -6 -2 -15z
m-1425 -5 c3 -5 1 -10 -4 -10 -6 0 -11 5 -11 10 0 6 2 10 4 10 3 0 8 -4 11
-10z m380 0 c-3 -5 -12 -7 -20 -3 -21 7 -19 13 6 13 11 0 18 -4 14 -10z m275
0 c0 -5 -4 -10 -10 -10 -5 0 -10 5 -10 10 0 6 5 10 10 10 6 0 10 -4 10 -10z
m360 -17 c0 -19 -3 -24 -10 -17 -6 6 -8 18 -4 27 9 24 14 21 14 -10z m690 23
c0 -3 -4 -8 -10 -11 -5 -3 -10 -1 -10 4 0 6 5 11 10 11 6 0 10 -2 10 -4z
m-644 -41 c-3 -8 -11 -15 -18 -14 -10 0 -10 2 0 6 6 2 12 14 13 26 0 12 3 16
6 9 3 -7 2 -19 -1 -27z m386 13 c-6 -6 -15 -8 -19 -4 -4 4 -1 11 7 16 19 12
27 3 12 -12z m-1587 -52 c-4 -31 -11 -56 -16 -56 -5 0 -7 10 -5 23 3 12 8 39
11 61 10 58 18 35 10 -28z m1645 54 c0 -5 -4 -10 -9 -10 -6 0 -13 5 -16 10 -3
6 1 10 9 10 9 0 16 -4 16 -10z m244 -61 c3 -24 3 -36 0 -26 -5 17 -7 17 -24 2
-17 -16 -19 -15 -29 3 -11 20 -6 52 8 52 4 0 13 -6 20 -12 11 -11 12 -7 7 22
-5 25 -4 31 3 19 6 -9 13 -36 15 -60z m-1422 1 c4 0 8 8 8 18 0 13 2 14 9 4 5
-8 19 -11 37 -8 25 5 23 3 -11 -14 -45 -22 -65 -19 -106 18 -43 38 -35 46 13
12 22 -16 45 -30 50 -30z m438 50 c0 -5 -4 -10 -10 -10 -5 0 -10 5 -10 10 0 6
5 10 10 10 6 0 10 -4 10 -10z m-2865 -10 c-4 -6 -29 -22 -56 -36 -29 -14 -54
-35 -59 -49 -10 -27 -65 -60 -75 -45 -3 5 8 16 24 25 17 8 34 21 38 29 7 12
119 86 131 86 2 0 0 -5 -3 -10z m2329 -19 c23 -24 25 -29 11 -35 -23 -8 -22
-9 -28 15 -3 12 -10 18 -17 14 -6 -4 -18 -1 -26 6 -12 10 -12 14 -2 20 22 14
33 10 62 -20z m1157 -4 c-13 -13 -26 -3 -16 12 3 6 11 8 17 5 6 -4 6 -10 -1
-17z m-1407 -16 c-2 -3 -12 3 -22 13 -16 17 -16 18 5 5 12 -7 20 -15 17 -18z
m46 25 c0 -11 -19 -15 -25 -6 -3 5 1 10 9 10 9 0 16 -2 16 -4z m160 -63 c0 -6
21 -9 53 -7 45 3 50 1 34 -10 -38 -29 -145 2 -131 39 3 7 1 16 -5 20 -6 3 -11
10 -11 16 0 5 14 -4 30 -19 17 -16 30 -34 30 -39z m350 60 c-1 -15 -30 -46
-36 -40 -4 4 -13 2 -20 -4 -15 -12 -57 -2 -49 12 4 5 15 9 25 9 10 0 21 6 24
13 5 10 7 10 12 0 8 -18 27 -16 20 2 -3 9 0 15 9 15 8 0 15 -3 15 -7z m197 1
c-3 -3 -12 -4 -19 -1 -8 3 -5 6 6 6 11 1 17 -2 13 -5z m623 -4 c0 -5 -7 -10
-15 -10 -8 0 -15 5 -15 10 0 6 7 10 15 10 8 0 15 -4 15 -10z m-903 -6 c-3 -3
-12 -4 -19 -1 -8 3 -5 6 6 6 11 1 17 -2 13 -5z m853 2 c0 -11 -19 -15 -25 -6
-3 5 1 10 9 10 9 0 16 -2 16 -4z m-446 -27 c-6 -11 -24 -2 -24 11 0 5 7 7 15
4 8 -4 12 -10 9 -15z m1781 11 c3 -5 -1 -10 -9 -10 -9 0 -16 5 -16 10 0 6 4
10 9 10 6 0 13 -4 16 -10z m-2020 -10 c3 -5 1 -10 -4 -10 -6 0 -11 5 -11 10 0
6 2 10 4 10 3 0 8 -4 11 -10z m375 6 c0 -3 -4 -8 -10 -11 -5 -3 -10 -1 -10 4
0 6 5 11 10 11 6 0 10 -2 10 -4z m230 -15 c0 -10 7 -21 15 -25 8 -3 15 -10 15
-16 0 -6 -7 -4 -16 4 -8 9 -19 16 -23 16 -4 0 -7 9 -8 20 -1 11 2 20 8 20 5 0
9 -9 9 -19z m-806 -8 c6 -18 66 -29 66 -12 0 5 7 6 15 2 9 -3 14 -7 12 -10 -9
-8 -67 -21 -62 -13 7 11 -48 8 -56 -4 -4 -5 -15 -5 -25 -1 -15 6 -16 8 -4 12
44 13 43 13 30 28 -10 12 -10 15 3 15 9 0 18 -8 21 -17z m902 -11 c-18 -16
-18 -16 -6 6 6 13 14 21 18 18 3 -4 -2 -14 -12 -24z m1284 -19 c0 -19 -14 -15
-28 7 -17 27 -5 47 14 23 7 -10 14 -24 14 -30z m-4663 31 c-3 -3 -12 -4 -19
-1 -8 3 -5 6 6 6 11 1 17 -2 13 -5z m3722 -15 c-16 -10 -23 -4 -14 10 3 6 11
8 17 5 6 -4 5 -9 -3 -15z m-1863 -67 c1 -43 7 -96 14 -117 16 -53 73 -165 82
-165 5 0 8 -4 8 -10 0 -60 -95 123 -109 210 -15 92 -14 161 3 160 1 0 1 -35 2
-78z m173 31 c2 -2 1 -6 -2 -10 -8 -8 -57 36 -57 50 0 6 12 0 28 -14 15 -13
29 -25 31 -26z m25 32 c-4 -8 -11 -12 -16 -9 -6 4 -5 10 3 15 19 12 19 11 13
-6z m938 8 c-6 -2 -10 -9 -6 -14 3 -5 0 -9 -5 -9 -12 0 -14 13 -4 23 3 4 11 7
17 6 6 0 5 -3 -2 -6z m-37 -29 c0 -15 6 -18 33 -16 17 2 32 -1 32 -6 0 -12
-70 -20 -101 -11 -24 7 -24 7 -1 8 26 1 29 19 5 37 -16 13 -16 13 7 10 17 -2
25 -9 25 -22z m445 1 c0 -8 -4 -15 -10 -15 -5 0 -10 7 -10 15 0 8 5 15 10 15
6 0 10 -7 10 -15z m415 -68 c-6 -75 -10 -99 -25 -132 -5 -11 -15 -33 -21 -50
-7 -18 -13 -25 -16 -17 -3 8 0 24 6 35 10 22 28 87 37 137 2 14 -1 11 -6 -7
-6 -18 -15 -33 -21 -33 -6 0 -7 5 -2 13 15 23 33 82 33 110 0 16 4 26 10 22 6
-4 8 -35 5 -78z m365 73 c0 -5 -4 -10 -10 -10 -5 0 -10 5 -10 10 0 6 5 10 10
10 6 0 10 -4 10 -10z m-880 -15 c8 -10 17 -12 24 -6 7 6 11 2 11 -13 0 -20 -5
-22 -52 -21 -44 0 -53 3 -53 18 0 14 5 16 25 11 20 -5 24 -3 19 10 -8 20 9 21
26 1z m1325 5 c3 -5 1 -10 -4 -10 -6 0 -11 5 -11 10 0 6 2 10 4 10 3 0 8 -4
11 -10z m-4628 -6 c-3 -3 -12 -4 -19 -1 -8 3 -5 6 6 6 11 1 17 -2 13 -5z
m1913 -34 c0 -22 -4 -40 -9 -40 -5 0 -9 18 -9 40 0 22 3 40 9 40 5 0 9 -18 9
-40z m2437 8 c70 -17 151 -32 180 -32 28 0 49 -4 47 -8 -3 -4 7 -8 21 -8 15 0
24 -4 20 -10 -7 -12 -77 -6 -140 10 -22 6 -88 22 -147 35 -105 23 -164 44
-126 45 9 0 74 -14 145 -32z m234 9 c-10 -9 -11 -8 -5 6 3 10 9 15 12 12 3 -3
0 -11 -7 -18z m-2106 3 c-3 -5 -12 -7 -20 -3 -21 7 -19 13 6 13 11 0 18 -4 14
-10z m1295 2 c0 -13 -12 -22 -22 -16 -10 6 -1 24 13 24 5 0 9 -4 9 -8z m650 4
c0 -11 -19 -15 -25 -6 -3 5 1 10 9 10 9 0 16 -2 16 -4z m-1034 -21 c-25 -19
-36 -19 -36 0 0 10 10 15 28 15 26 -1 26 -1 8 -15z m335 -8 c-10 -9 -11 -8 -5
6 3 10 9 15 12 12 3 -3 0 -11 -7 -18z m749 13 c0 -5 -2 -10 -4 -10 -3 0 -8 5
-11 10 -3 6 -1 10 4 10 6 0 11 -4 11 -10z m175 -9 c-8 -13 -32 -14 -39 -2 -4
5 3 7 14 4 12 -3 20 0 20 8 0 7 3 10 6 6 3 -3 3 -10 -1 -16z m-4700 -1 c-3 -5
-20 -10 -36 -10 -18 0 -28 4 -24 10 3 6 20 10 36 10 18 0 28 -4 24 -10z m2130
-12 c7 -8 4 -9 -9 -4 -11 4 -22 2 -26 -5 -6 -8 -9 -8 -14 0 -4 6 -1 11 6 12 7
0 4 5 -7 10 -16 7 -14 8 10 3 17 -3 35 -10 40 -16z m1026 5 c13 -15 12 -15
-11 -3 -34 17 -36 20 -18 20 9 0 22 -7 29 -17z m1642 -27 c4 4 7 -7 7 -24 l0
-31 -32 14 c-18 7 -33 17 -33 22 0 4 -4 14 -8 21 -5 7 -3 12 6 12 8 0 18 8 22
18 6 14 9 13 19 -11 7 -15 15 -24 19 -21z m-2738 -1 c17 -13 25 -24 18 -25 -7
0 -25 11 -40 25 -36 32 -17 32 22 0z m1882 -27 c-2 -13 -4 -5 -4 17 -1 22 1
32 4 23 2 -10 2 -28 0 -40z m-4178 29 c-8 -7 -24 -25 -34 -40 -10 -15 -20 -26
-22 -23 -8 7 48 76 61 76 6 0 4 -6 -5 -13z m2395 -2 c-6 -14 -44 -22 -44 -10
0 4 29 19 47 24 1 1 0 -6 -3 -14z m933 -7 c-3 -8 -6 -5 -6 6 -1 11 2 17 5 13
3 -3 4 -12 1 -19z m233 13 c0 -14 -18 -23 -30 -16 -6 4 -8 11 -5 16 8 12 35
12 35 0z m80 -1 c0 -5 -4 -10 -10 -10 -5 0 -10 5 -10 10 0 6 5 10 10 10 6 0
10 -4 10 -10z m1287 4 c-3 -3 -12 -4 -19 -1 -8 3 -5 6 6 6 11 1 17 -2 13 -5z
m-422 -34 c3 -5 1 -10 -4 -10 -6 0 -11 5 -11 10 0 6 2 10 4 10 3 0 8 -4 11
-10z m-2185 -19 c0 -5 7 -8 16 -7 9 0 19 -4 21 -10 6 -17 -36 -10 -54 9 -16
16 -16 17 0 17 9 0 17 -4 17 -9z m781 -8 c0 -5 2 -18 5 -30 3 -21 3 -21 -28
-6 -29 15 -30 17 -13 30 21 15 35 17 36 6z m1583 -8 c-7 -16 -24 -21 -24 -6 0
8 7 13 27 20 1 1 0 -6 -3 -14z m-4554 -5 c0 -5 -10 -10 -22 -10 -19 0 -20 2
-8 10 19 13 30 13 30 0z m-55 -10 c3 -5 3 -10 -2 -10 -4 0 -18 -3 -30 -6 -13
-4 -23 -2 -23 4 0 9 15 16 42 21 4 0 10 -3 13 -9z m3070 0 c3 -5 -1 -10 -9
-10 -9 0 -16 5 -16 10 0 6 4 10 9 10 6 0 13 -4 16 -10z m-715 -50 c20 -16 21
-19 5 -13 -29 11 -65 37 -65 46 0 9 25 -5 60 -33z m2120 25 c14 -17 35 -20 24
-4 -4 7 -1 10 6 7 7 -2 17 -14 21 -26 8 -22 4 -22 -46 -2 -11 5 -28 11 -37 14
-10 3 -18 10 -18 16 0 15 36 12 50 -5z m-2220 -30 c7 -9 9 -19 5 -23 -4 -4
-10 -1 -12 6 -3 6 -13 12 -23 12 -10 0 -22 5 -25 10 -10 16 41 11 55 -5z m840
-5 c0 -5 -2 -10 -4 -10 -3 0 -8 5 -11 10 -3 6 -1 10 4 10 6 0 11 -4 11 -10z
m1484 -6 c9 -8 20 -12 26 -9 6 3 13 -1 16 -9 3 -9 10 -14 14 -11 5 3 11 1 15
-5 3 -5 1 -10 -5 -10 -13 0 -9 -32 5 -42 15 -12 -7 -10 -25 2 -12 8 -12 10 -1
10 11 0 10 5 -4 20 -11 13 -25 18 -37 14 -14 -4 -18 0 -18 19 0 14 -6 28 -12
30 -9 4 -10 6 -1 6 6 1 19 -6 27 -15z m-127 0 c-3 -3 -12 -4 -19 -1 -8 3 -5 6
6 6 11 1 17 -2 13 -5z m-2152 -14 c3 -5 1 -10 -4 -10 -6 0 -11 5 -11 10 0 6 2
10 4 10 3 0 8 -4 11 -10z m-2348 -16 c-3 -3 -12 -4 -19 -1 -8 3 -5 6 6 6 11 1
17 -2 13 -5z m1475 -16 c-8 -8 -17 -8 -34 0 -22 10 -21 11 12 11 26 1 31 -2
22 -11z m968 -3 c10 -12 6 -13 -25 -8 -26 4 -40 2 -46 -8 -7 -12 -9 -11 -9 2
0 9 3 19 7 22 12 12 60 7 73 -8z m-2395 -10 c6 -2 -11 -4 -37 -4 -27 -1 -48 3
-48 7 0 7 62 5 85 -3z m1495 6 c0 -6 -4 -13 -10 -16 -5 -3 -10 -14 -10 -23 0
-11 9 -5 30 18 29 34 29 35 29 10 1 -37 -10 -71 -20 -64 -5 3 -6 -2 -3 -10 8
-20 -54 -109 -69 -99 -7 4 -6 -1 2 -11 8 -9 10 -16 5 -14 -5 1 -44 -21 -86
-50 -74 -50 -97 -71 -62 -58 9 3 12 2 9 -5 -4 -5 -15 -7 -26 -4 -10 4 -19 3
-19 -2 0 -4 -19 -17 -43 -28 -23 -11 -46 -25 -50 -32 -4 -7 -15 -13 -23 -13
-9 0 -12 -5 -8 -12 6 -10 4 -10 -7 0 -18 17 -75 15 -105 -4 -20 -14 -22 -19
-12 -33 7 -9 9 -13 4 -9 -4 3 -21 2 -37 -2 -16 -5 -31 -5 -34 -1 -6 11 -97
-10 -113 -26 -7 -7 -19 -13 -25 -13 -7 0 -6 4 3 10 12 8 11 10 -6 10 -11 0
-29 -6 -39 -14 -16 -12 -21 -11 -33 1 -11 11 -17 11 -22 3 -4 -7 -16 -9 -29
-5 -12 4 -21 2 -21 -4 0 -6 -10 -11 -22 -11 -19 0 -20 2 -8 10 26 17 -1 11
-31 -7 -23 -14 -33 -15 -47 -6 -11 6 -55 10 -109 8 -88 -2 -91 -2 -102 23 -11
22 -10 24 9 19 11 -3 18 -2 15 3 -7 11 27 23 34 12 3 -5 16 -11 29 -15 20 -5
22 -3 10 11 -11 14 -10 15 5 9 10 -4 33 -8 50 -8 l32 -1 -30 -8 c-30 -8 -30
-8 8 -9 21 0 36 3 32 8 -3 5 3 12 12 14 10 3 -3 5 -29 6 -37 1 -46 4 -42 16 3
8 13 14 22 13 38 -3 51 3 54 24 2 12 10 24 18 26 13 4 13 3 2 -10 -8 -10 -9
-19 -3 -22 9 -6 61 9 61 18 0 3 -6 3 -14 0 -8 -3 -16 4 -19 17 -4 15 -11 20
-22 15 -9 -3 -25 -1 -36 4 -15 8 -19 7 -19 -5 0 -8 -5 -15 -12 -15 -6 0 -22
-9 -34 -21 -14 -13 -27 -18 -36 -13 -9 6 -6 10 12 14 18 4 26 14 28 33 3 26
-11 37 -23 17 -3 -5 -10 -10 -16 -10 -15 0 -10 19 11 40 l20 20 -25 0 c-14 0
-25 -5 -25 -12 0 -9 -3 -9 -12 0 -10 10 -6 18 20 38 18 14 30 30 27 35 -4 5
-1 9 6 9 9 0 9 3 0 14 -15 18 16 27 65 19 22 -4 34 -2 34 6 0 6 -15 11 -32 11
-29 0 -79 19 -52 20 6 0 16 11 21 23 10 20 7 28 -17 50 -16 15 -37 27 -48 27
-23 0 -37 26 -20 36 7 5 8 2 3 -6 -6 -10 -2 -11 19 -6 15 4 26 2 26 -4 0 -5 9
-10 20 -10 11 0 20 -4 20 -10 0 -5 -5 -10 -12 -10 -13 0 17 -28 50 -48 24 -13
29 -4 10 17 -11 11 -10 13 5 7 10 -3 25 -6 34 -6 9 0 13 -6 9 -15 -9 -26 8
-17 38 20 16 19 38 35 48 35 10 0 18 5 18 10 0 6 5 10 11 10 5 0 8 -4 5 -8 -5
-9 16 -11 142 -12 18 0 49 7 69 15 50 21 53 18 13 -15 -23 -21 -29 -30 -18
-30 9 0 20 5 23 11 4 6 19 10 33 9 41 -3 50 -1 55 13 2 6 3 3 1 -8 -3 -16 2
-20 22 -20 14 1 29 6 32 12 5 8 22 7 57 -2 28 -7 52 -9 53 -4 5 13 30 11 55
-5 27 -16 75 -15 105 4 27 18 29 30 2 23 -11 -3 -20 -9 -20 -14 0 -5 -5 -9
-10 -9 -6 0 -5 8 2 21 11 18 20 20 61 16 27 -2 43 -1 37 3 -8 5 -2 11 16 18
38 14 44 14 44 3z m2320 5 c0 -3 -4 -8 -10 -11 -5 -3 -10 -1 -10 4 0 6 5 11
10 11 6 0 10 -2 10 -4z m-3023 -22 c-3 -3 -12 -4 -19 -1 -8 3 -5 6 6 6 11 1
17 -2 13 -5z m434 -5 c-16 -6 -28 -6 -35 1 -7 7 1 10 25 9 32 0 33 -1 10 -10z
m2721 -14 c-2 -14 -10 -25 -17 -25 -10 0 -11 5 -2 25 15 32 26 32 19 0z
m-3328 -1 c9 -23 7 -44 -3 -44 -5 0 -11 14 -13 30 -5 32 6 41 16 14z m23 -16
c-3 -8 -6 -5 -6 6 -1 11 2 17 5 13 3 -3 4 -12 1 -19z m4077 -8 c-6 -6 -10 -3
-10 10 0 13 4 16 10 10 7 -7 7 -13 0 -20z m-4714 10 c0 -5 -18 -13 -40 -16
-22 -4 -37 -10 -34 -15 3 -5 -7 -8 -23 -8 -17 1 -21 3 -10 6 9 2 17 11 17 18
0 9 15 15 43 18 23 2 43 4 45 5 1 1 2 -2 2 -8z m1310 1 c0 -6 -4 -13 -10 -16
-5 -3 -10 1 -10 9 0 9 5 16 10 16 6 0 10 -4 10 -9z m985 -25 c9 -19 26 -37 38
-40 37 -10 92 -7 107 7 8 6 6 2 -4 -10 -23 -28 -84 -31 -122 -7 -27 18 -57 68
-47 78 10 9 11 8 28 -28z m626 21 c-1 -12 -15 -9 -19 4 -3 6 1 10 8 8 6 -3 11
-8 11 -12z m979 3 c0 -5 -7 -10 -15 -10 -8 0 -15 5 -15 10 0 6 7 10 15 10 8 0
15 -4 15 -10z m1310 -15 c0 -24 -12 -45 -26 -45 -20 0 -17 18 4 23 9 3 -1 5
-23 6 l-40 1 29 19 c30 20 56 18 56 -4z m-96 3 c-2 -7 -20 -21 -40 -30 -34
-18 -34 -18 -24 2 6 11 19 20 30 20 10 0 22 5 25 10 9 14 15 12 9 -2z m-4697
-4 c-3 -3 -12 -4 -19 -1 -8 3 -5 6 6 6 11 1 17 -2 13 -5z m3901 -43 c29 -19
50 -36 47 -39 -5 -5 -113 67 -122 81 -3 6 0 6 8 1 8 -5 38 -25 67 -43z m-2765
20 c5 -19 -11 -43 -52 -76 l-24 -20 11 21 c6 11 18 26 26 34 9 7 16 23 16 36
0 28 16 32 23 5z m2366 2 c-24 -30 -122 -123 -130 -123 -18 0 -18 20 1 33 14
10 18 20 13 32 -5 14 -3 17 9 12 10 -3 19 0 22 8 3 8 12 12 20 9 18 -7 32 16
16 26 -14 8 5 16 44 19 16 1 17 -1 5 -16z m-934 -14 c5 -5 1 -9 -12 -9 -29 0
-53 10 -53 22 0 12 50 2 65 -13z m-2999 -4 c-19 -14 -19 -15 6 -15 15 0 30 -4
33 -10 4 -6 -13 -10 -44 -10 -63 0 -72 13 -23 33 47 20 52 20 28 2z m474 5 c0
-5 -5 -10 -11 -10 -5 0 -7 5 -4 10 3 6 8 10 11 10 2 0 4 -4 4 -10z m1836 -99
c24 -24 43 -46 41 -47 -5 -6 -91 76 -128 121 l-33 40 38 -35 c21 -19 58 -55
82 -79z m2819 99 c-3 -5 -14 -10 -23 -10 -15 0 -15 2 -2 10 20 13 33 13 25 0z
m312 -72 c-3 -8 -6 -5 -6 6 -1 11 2 17 5 13 3 -3 4 -12 1 -19z m-5067 8 c0 -2
-7 -7 -16 -10 -8 -3 -12 -2 -9 4 6 10 25 14 25 6z m2340 -16 c22 -11 40 -22
40 -25 0 -6 -49 15 -75 32 -30 20 -9 16 35 -7z m-2630 -5 c0 -5 -24 -16 -67
-29 -17 -6 -23 -3 -23 9 0 9 4 14 9 11 5 -4 20 -2 33 3 26 11 48 13 48 6z
m4301 -19 c0 -5 -30 -22 -68 -39 -58 -25 -119 -64 -170 -107 -7 -5 -16 -10
-20 -10 -4 1 6 12 22 26 21 19 24 24 10 20 -15 -5 -17 -4 -9 4 6 6 20 13 30
15 11 1 18 8 17 13 -2 6 3 9 10 6 7 -2 29 6 48 19 33 22 67 39 81 41 4 1 13 7
20 14 13 13 30 12 29 -2z m-621 -7 c0 -5 5 -7 10 -4 6 3 10 2 10 -3 0 -6 -7
-13 -16 -16 -8 -3 -12 -2 -9 4 4 6 -8 10 -27 11 -27 0 -30 2 -13 9 28 12 45
12 45 -1z m-3390 -17 c0 -5 -16 -9 -35 -10 -21 -1 -33 3 -30 8 8 12 65 13 65
2z m-230 -11 c0 -11 -69 -36 -76 -28 -3 3 8 8 25 12 17 4 31 11 31 16 0 5 5 9
10 9 6 0 10 -4 10 -9z m3295 -11 c3 -6 -1 -7 -9 -4 -18 7 -21 14 -7 14 6 0 13
-4 16 -10z m290 -10 c-10 -11 -22 -20 -27 -20 -10 0 24 38 36 39 5 1 1 -8 -9
-19z m-1020 0 c3 -5 1 -10 -4 -10 -6 0 -11 5 -11 10 0 6 2 10 4 10 3 0 8 -4
11 -10z m2265 0 c0 -5 -2 -10 -4 -10 -3 0 -8 5 -11 10 -3 6 -1 10 4 10 6 0 11
-4 11 -10z m27 -12 c-3 -8 -6 -5 -6 6 -1 11 2 17 5 13 3 -3 4 -12 1 -19z
m-4663 -19 c-6 -11 -24 -2 -24 11 0 5 7 7 15 4 8 -4 12 -10 9 -15z m2431 -12
c-5 -12 -55 -32 -55 -21 0 15 14 32 25 28 7 -3 16 0 20 6 10 16 17 6 10 -13z
m70 13 c3 -5 -1 -10 -9 -10 -9 0 -16 5 -16 10 0 6 4 10 9 10 6 0 13 -4 16 -10z
m65 0 c12 -8 11 -10 -7 -10 -12 0 -25 5 -28 10 -8 13 15 13 35 0z m377 4 c-3
-3 -12 -4 -19 -1 -8 3 -5 6 6 6 11 1 17 -2 13 -5z m1588 -4 c3 -5 1 -10 -4
-10 -6 0 -11 5 -11 10 0 6 2 10 4 10 3 0 8 -4 11 -10z m375 0 c0 -5 -5 -10
-11 -10 -5 0 -7 5 -4 10 3 6 8 10 11 10 2 0 4 -4 4 -10z m35 0 c3 -5 1 -10 -4
-10 -6 0 -11 5 -11 10 0 6 2 10 4 10 3 0 8 -4 11 -10z m-5071 -15 c-4 -8 -10
-12 -15 -9 -11 6 -2 24 11 24 5 0 7 -7 4 -15z m3032 6 c-3 -5 -15 -11 -26 -14
-17 -4 -19 -3 -9 9 12 15 44 20 35 5z m423 6 c-38 -28 -59 -36 -65 -24 -4 6
-4 9 1 5 4 -4 17 -1 29 7 11 8 25 15 30 15 5 0 7 -1 5 -3z m1517 -10 c4 -4 -7
-7 -25 -7 -18 0 -30 4 -27 8 6 10 42 9 52 -1z m-2174 -28 l23 -2 -23 -4 c-13
-3 -26 -11 -29 -19 -3 -8 -13 -14 -22 -14 -13 1 -13 3 3 15 16 12 17 18 8 27
-9 9 -12 9 -12 0 0 -10 -3 -10 -14 0 -22 20 -7 31 20 14 13 -9 34 -17 46 -17z
m48 21 c0 -5 -4 -10 -10 -10 -5 0 -10 5 -10 10 0 6 5 10 10 10 6 0 10 -4 10
-10z m91 -3 c-7 -7 -14 -8 -21 -1 -6 6 -2 10 12 11 16 2 18 -1 9 -10z m1896 7
c-3 -3 -12 -4 -19 -1 -8 3 -5 6 6 6 11 1 17 -2 13 -5z m-4733 -19 c-4 -8 -14
-15 -23 -15 -14 1 -13 3 3 15 25 19 27 19 20 0z m2602 0 c16 -15 16 -15 -59
-30 -12 -2 -17 1 -13 10 3 8 0 16 -7 19 -11 6 22 1 55 -7 7 -2 10 -2 6 0 -9 5
-11 23 -2 23 3 0 12 -7 20 -15z m1457 8 c-7 -2 -19 -2 -25 0 -7 3 -2 5 12 5
14 0 19 -2 13 -5z m90 0 c-7 -2 -19 -2 -25 0 -7 3 -2 5 12 5 14 0 19 -2 13 -5z
m1072 -4 c11 -17 2 -18 -19 -3 -17 12 -17 14 -4 14 9 0 20 -5 23 -11z m-1960
-18 c-3 -6 -11 -11 -17 -11 -6 0 -6 6 2 15 14 17 26 13 15 -4z m-3205 -6 c0
-9 -7 -18 -16 -22 -18 -7 -39 11 -30 26 11 17 46 13 46 -4z m2732 1 c22 -16
13 -26 -24 -26 -31 0 -34 4 -15 25 15 18 18 18 39 1z m118 8 c0 -9 -28 -34
-37 -33 -20 3 -27 -2 -13 -12 12 -8 12 -10 1 -7 -8 2 -20 13 -28 24 -12 19
-11 21 16 19 17 -1 28 2 25 7 -3 4 4 8 15 8 12 0 21 -3 21 -6z m-2775 -13 c3
-5 1 -12 -5 -16 -5 -3 -10 1 -10 9 0 18 6 21 15 7z m2845 -1 c0 -5 -7 -7 -16
-3 -9 3 -20 0 -24 -8 -5 -7 -12 -10 -15 -7 -4 4 -4 11 0 17 8 14 55 14 55 1z
m-267 -26 c11 -14 17 -28 14 -30 -3 -3 -15 9 -27 25 -12 17 -18 31 -13 31 4 0
16 -12 26 -26z m-2603 -5 c0 -14 -17 -10 -23 5 -4 10 -1 13 9 9 7 -3 14 -9 14
-14z m1290 -10 c0 -16 -4 -28 -9 -25 -8 5 -3 56 5 56 2 0 4 -14 4 -31z m1797
25 c-3 -3 -12 -4 -19 -1 -8 3 -5 6 6 6 11 1 17 -2 13 -5z m606 -26 c-8 -34
-32 -56 -52 -51 -16 4 -14 10 18 39 20 18 37 34 38 34 0 0 -1 -10 -4 -22z
m1375 7 c3 -3 -11 -5 -30 -5 -20 0 -39 -6 -42 -12 -5 -10 -7 -10 -12 0 -3 6
-18 12 -32 12 -18 0 -23 3 -14 9 14 8 121 6 130 -4z m143 -2 c13 -16 12 -17
-3 -4 -10 7 -18 15 -18 17 0 8 8 3 21 -13z m-4051 3 c0 -3 -4 -8 -10 -11 -5
-3 -10 -1 -10 4 0 6 5 11 10 11 6 0 10 -2 10 -4z m1270 -6 c0 -5 -4 -10 -9
-10 -6 0 -13 5 -16 10 -3 6 1 10 9 10 9 0 16 -4 16 -10z m285 0 c3 -5 1 -10
-4 -10 -6 0 -11 5 -11 10 0 6 2 10 4 10 3 0 8 -4 11 -10z m265 6 c0 -2 -7 -7
-16 -10 -8 -3 -12 -2 -9 4 6 10 25 14 25 6z m910 -6 c0 -5 8 -10 17 -10 9 0
14 -2 11 -5 -8 -9 -58 6 -58 16 0 5 7 9 15 9 8 0 15 -4 15 -10z m-1350 -10 c0
-5 -4 -10 -9 -10 -6 0 -13 5 -16 10 -3 6 1 10 9 10 9 0 16 -4 16 -10z m2326
-12 c38 -29 45 -40 38 -60 -5 -17 10 -26 19 -10 2 4 2 1 1 -6 -2 -7 2 -12 9
-11 22 3 40 -1 34 -7 -3 -4 5 -21 18 -38 13 -17 27 -44 31 -60 7 -28 8 -28 21
-10 11 15 16 16 22 6 4 -7 12 -12 17 -11 26 5 43 -3 49 -22 9 -29 17 -17 10
14 -5 20 -14 27 -38 29 l-32 3 42 23 c49 26 67 28 59 7 -3 -10 1 -15 14 -15
10 0 22 -4 25 -10 4 -6 -6 -10 -24 -10 -36 0 -46 -13 -24 -31 13 -11 17 -11
20 -1 8 21 21 13 16 -10 -4 -19 -3 -20 6 -8 7 10 11 11 11 3 0 -7 7 -10 15 -7
21 8 20 -39 0 -56 -9 -7 -14 -19 -11 -26 3 -7 1 -16 -3 -19 -5 -3 -7 -14 -4
-25 4 -16 2 -19 -12 -13 -12 4 -16 3 -11 -5 8 -14 -4 -21 -42 -24 -17 -1 -34
-9 -37 -17 -8 -21 2 -25 20 -7 9 9 28 16 41 16 21 0 23 -2 12 -14 -7 -7 -18
-11 -25 -9 -7 3 -10 -3 -6 -15 3 -14 -1 -22 -16 -27 -11 -3 -29 -17 -39 -30
-10 -13 -27 -23 -38 -22 -14 2 -18 -3 -16 -17 3 -15 -1 -18 -17 -13 -13 3 -19
1 -14 -6 4 -6 -2 -8 -15 -5 -12 4 -20 2 -17 -3 7 -11 -26 -18 -95 -22 -46 -2
-57 -6 -65 -24 -10 -23 -51 -43 -87 -43 -10 0 -21 -7 -24 -15 -4 -8 -10 -15
-15 -15 -5 0 -9 7 -9 15 0 20 -10 19 -26 -2 -12 -16 -13 -16 -14 9 0 26 -12
31 -36 15 -7 -4 -14 1 -17 13 -3 10 0 21 7 24 6 2 3 5 -6 5 -28 1 -21 18 10
23 44 6 65 -1 52 -17 -21 -25 -1 -35 33 -17 33 18 49 33 41 41 -2 3 -9 0 -16
-7 -8 -8 -18 -7 -39 4 -22 11 -38 12 -71 4 -24 -5 -62 -10 -85 -10 -24 0 -43
-4 -43 -10 0 -5 -12 -10 -27 -11 -16 0 -22 -3 -15 -6 6 -2 12 -9 12 -14 0 -6
-4 -7 -10 -4 -5 3 -16 3 -22 -2 -13 -8 -18 -9 -40 -12 -9 -1 -9 -4 1 -10 9 -6
22 -6 32 0 10 5 26 8 36 8 15 -1 16 -2 1 -6 -34 -9 -28 -32 10 -43 20 -5 44
-10 52 -10 11 0 11 -3 2 -12 -10 -10 -17 -10 -32 0 -11 6 -30 12 -42 12 -12 0
-30 8 -40 17 -16 14 -21 15 -28 3 -19 -30 -135 -16 -124 15 3 7 0 16 -5 20 -6
3 -9 11 -5 16 7 12 -24 49 -41 49 -7 0 -16 7 -19 16 -4 11 -13 14 -30 10 -16
-4 -26 -1 -30 9 -3 8 -12 15 -21 15 -8 0 -15 5 -15 11 0 6 -7 9 -15 5 -18 -7
-20 5 -3 22 8 8 9 12 1 12 -6 0 -13 -6 -16 -12 -4 -10 -7 -10 -18 0 -11 11
-10 14 8 18 21 6 21 7 -9 35 -33 29 -47 30 -49 1 0 -9 -5 -2 -10 17 -9 28 -14
32 -35 28 -13 -2 -26 -1 -29 3 -4 7 14 11 58 11 15 0 27 4 27 9 0 5 7 7 15 4
8 -4 12 -10 9 -15 -3 -5 1 -9 8 -9 7 0 20 -5 28 -10 12 -8 13 -11 1 -19 -9 -6
-10 -11 -2 -15 6 -4 11 -2 11 3 0 6 7 11 16 11 11 0 14 -6 9 -20 -4 -14 -2
-20 8 -20 8 0 20 -7 27 -15 9 -10 9 -15 1 -15 -6 0 -11 -5 -11 -11 0 -6 15 -9
38 -7 31 2 37 0 35 -15 0 -11 4 -16 11 -14 7 3 19 1 27 -3 10 -7 8 -11 -11
-18 l-24 -9 25 -4 c13 -2 44 -2 69 2 33 4 40 7 27 13 -16 8 -16 10 4 27 12 11
23 19 24 19 1 0 0 -16 -1 -36 -3 -28 0 -35 11 -30 9 3 15 -1 15 -9 0 -19 8
-19 27 1 10 9 30 15 52 13 54 -3 73 0 66 11 -3 5 8 24 24 42 27 30 31 32 54
19 14 -7 30 -10 36 -6 8 5 10 -1 5 -19 -7 -29 7 -34 26 -11 7 8 21 15 32 15
10 0 16 5 13 10 -3 6 2 10 12 11 50 2 67 7 79 23 7 11 18 15 25 10 8 -4 10 -3
5 4 -4 7 -3 12 3 12 14 0 51 41 46 51 -3 4 -1 19 5 34 8 20 14 25 23 17 8 -7
18 -7 27 -2 8 5 22 7 31 5 9 -3 26 4 38 14 13 11 27 21 33 23 5 2 7 15 3 31
-6 22 -10 25 -21 16 -15 -12 -9 -33 7 -24 5 4 9 1 9 -4 0 -6 -9 -11 -20 -11
-11 0 -20 6 -20 13 0 8 -18 13 -52 15 -29 1 -55 7 -58 12 -4 6 -15 8 -26 5
-10 -3 -6 1 10 8 16 8 24 17 19 20 -6 4 -24 0 -41 -8 -31 -16 -66 -11 -59 9 3
6 -3 20 -12 30 -10 13 -3 10 20 -7 45 -34 61 -35 53 -3 -8 34 21 42 54 14 15
-12 19 -18 10 -15 -31 11 -20 -7 13 -22 30 -13 55 -7 30 8 -9 6 -10 11 -2 15
6 4 11 3 11 -1 0 -5 18 -9 41 -9 31 -1 39 2 35 13 -3 8 -6 19 -6 25 0 6 -7 7
-16 4 -12 -4 -15 -2 -11 8 4 9 -6 27 -23 43 -21 19 -26 29 -17 35 7 5 1 8 -16
8 -16 0 -26 -4 -22 -10 3 -5 -1 -10 -9 -10 -10 0 -13 6 -10 15 4 9 1 15 -7 15
-10 0 -10 3 -1 12 7 7 12 19 12 28 0 13 -2 13 -11 0 -8 -11 -12 -12 -16 -2 -8
20 -25 13 -18 -8 4 -11 2 -20 -4 -20 -6 0 -11 5 -11 10 0 6 -9 10 -20 10 -11
0 -21 5 -21 10 -1 6 -2 15 -3 21 0 7 -10 16 -21 21 -18 8 -18 8 3 4 12 -2 22
0 22 6 0 5 7 2 16 -7 20 -20 32 -11 14 10 -20 24 12 19 46 -7z m-471 -6 c-3
-3 -11 0 -18 7 -9 10 -8 11 6 5 10 -3 15 -9 12 -12z m750 -33 c17 -6 16 -8 -7
-8 -16 -1 -28 3 -28 8 0 5 -8 18 -17 27 -17 17 -17 18 0 11 10 -4 17 -2 18 6
1 7 4 1 8 -12 3 -13 15 -28 26 -32z m-5080 31 c-3 -5 -14 -10 -23 -9 -14 0
-13 2 3 9 27 11 27 11 20 0z m4726 -72 c23 -16 23 -17 3 -18 -11 0 -34 14 -52
31 -17 17 -35 28 -40 25 -4 -2 -14 -1 -22 4 -14 9 -80 -17 -80 -32 0 -4 -6 -8
-12 -8 -7 0 0 12 15 27 21 21 35 27 67 26 22 -1 40 2 40 7 0 5 13 -4 29 -18
16 -15 39 -35 52 -44z m-704 42 c1 -11 -3 -20 -8 -20 -6 0 -7 5 -4 10 3 6 0
10 -7 10 -9 0 -9 3 2 10 8 5 15 10 15 10 1 0 1 -9 2 -20z m-2809 -31 c-3 -8
-7 -3 -11 10 -4 17 -3 21 5 13 5 -5 8 -16 6 -23z m3752 26 c0 -14 -40 -43 -46
-34 -3 6 2 17 12 24 19 15 34 19 34 10z m-1421 -53 c-11 -20 -19 -42 -19 -49
0 -7 -7 -13 -15 -13 -8 0 -15 5 -15 10 0 6 5 10 12 10 6 0 8 3 5 7 -4 3 0 15
10 25 20 23 10 36 -14 17 -10 -7 -7 -1 6 13 34 39 53 27 30 -20z m1466 18 c28
0 28 -26 0 -46 -10 -8 -16 -17 -12 -20 3 -4 -1 -13 -9 -22 -11 -11 -18 -12
-27 -3 -8 8 -7 11 6 11 9 0 17 5 17 10 0 6 -9 10 -19 10 -11 0 -23 5 -26 10
-3 6 1 10 9 10 9 0 16 4 16 9 0 4 12 6 28 3 15 -2 24 -2 21 2 -3 3 -18 7 -32
8 -30 3 -34 12 -14 32 10 12 13 12 15 0 2 -8 14 -14 27 -14z m107 18 c-7 -7
-8 -17 -2 -28 8 -15 4 -19 -22 -24 -37 -7 -34 -9 -44 28 -6 26 -5 29 13 24 12
-3 27 -2 34 3 20 13 35 11 21 -3z m-1436 -13 c-11 -8 -27 -15 -35 -15 -10 0
-7 6 9 14 33 19 50 19 26 1z m251 -7 c-3 -8 -6 -5 -6 6 -1 11 2 17 5 13 3 -3
4 -12 1 -19z m700 -11 c1 -15 -2 -27 -8 -27 -9 0 -13 15 -10 34 1 5 -4 13 -11
18 -9 7 -7 8 7 6 13 -2 20 -12 22 -31z m-924 -7 c-3 -11 -7 -20 -9 -20 -2 0
-4 9 -4 20 0 11 4 20 9 20 5 0 7 -9 4 -20z m285 -1 c-7 -5 -24 -8 -38 -7 -23
1 -24 1 -2 5 12 2 22 8 22 13 0 5 7 7 16 3 13 -5 13 -7 2 -14z m548 -1 c31
-24 44 -38 44 -51 0 -8 -15 3 -48 34 -24 22 -59 29 -89 18 -14 -5 -28 -7 -31
-4 -7 7 39 24 69 24 15 1 39 -9 55 -21z m54 12 c-10 -6 -11 -10 -2 -10 6 0 12
-5 12 -11 0 -8 -5 -8 -15 1 -20 17 -19 30 3 30 14 0 15 -2 2 -10z m102 -25 c4
-5 0 -16 -10 -23 -14 -10 -14 -14 -3 -21 7 -5 9 -11 4 -14 -5 -3 -15 3 -21 14
-11 17 -10 21 8 27 20 7 20 7 0 20 -15 9 -20 9 -20 0 0 -6 -2 -9 -5 -6 -3 3
-3 13 1 22 5 14 9 14 23 4 9 -7 19 -17 23 -23z m-3489 10 c-3 -9 -8 -14 -10
-11 -3 3 -2 9 2 15 9 16 15 13 8 -4z m2407 -15 c-18 -33 -11 -40 16 -14 24 25
26 25 45 8 23 -21 26 -49 4 -40 -8 3 -15 3 -15 0 0 -2 12 -9 26 -14 14 -6 22
-15 19 -20 -4 -6 -11 -8 -16 -5 -5 4 -9 0 -9 -8 0 -10 8 -13 25 -9 14 2 25 0
25 -4 0 -14 -49 -34 -56 -23 -4 6 -11 6 -19 -1 -20 -17 -55 9 -55 40 -1 22 -2
23 -11 7 -6 -9 -15 -15 -20 -11 -6 4 -5 14 4 27 8 12 17 39 21 60 4 21 11 35
17 32 6 -4 5 -13 -1 -25z m450 26 c0 -3 -7 -12 -16 -20 -8 -9 -11 -16 -5 -16
6 0 11 -4 11 -10 0 -16 -37 -12 -43 5 -4 9 4 20 21 29 34 17 32 17 32 12z
m-493 -38 c-3 -8 -6 -5 -6 6 -1 11 2 17 5 13 3 -3 4 -12 1 -19z m748 12 c-3
-5 -11 -10 -16 -10 -6 0 -7 5 -4 10 3 6 11 10 16 10 6 0 7 -4 4 -10z m445 6
c0 -11 -19 -15 -25 -6 -3 5 1 10 9 10 9 0 16 -2 16 -4z m-910 -16 c-12 -7 -8
-10 15 -10 21 0 26 -3 18 -11 -15 -15 -47 -7 -51 14 -2 11 3 17 15 17 15 0 16
-2 3 -10z m134 -11 c-7 -12 -41 -11 -49 1 -4 6 -11 7 -17 4 -6 -4 -8 -3 -5 3
3 5 22 7 41 5 20 -2 33 -8 30 -13z m495 5 c-10 -13 -10 -17 0 -24 8 -4 9 -10
3 -14 -5 -3 -16 1 -23 10 -11 14 -10 18 6 30 25 18 31 18 14 -2z m-3299 -14
c-6 -11 -13 -20 -16 -20 -2 0 0 9 6 20 6 11 13 20 16 20 2 0 0 -9 -6 -20z
m2530 0 c0 -11 -2 -20 -4 -20 -2 0 -6 9 -9 20 -3 11 -1 20 4 20 5 0 9 -9 9
-20z m1070 10 c0 -5 -2 -10 -4 -10 -3 0 -8 5 -11 10 -3 6 -1 10 4 10 6 0 11
-4 11 -10z m-405 -10 c18 -8 18 -9 -5 -9 -14 -1 -36 -4 -50 -7 -24 -5 -24 -5
-6 10 22 18 32 19 61 6z m152 -16 c2 -13 1 -15 -4 -4 -3 8 -11 19 -17 23 -7 6
-6 7 4 4 8 -2 16 -12 17 -23z m327 -32 c-27 -4 -61 19 -61 42 0 9 13 6 44 -13
42 -25 43 -26 17 -29z m-884 33 c6 3 20 -1 32 -10 23 -15 22 -15 -10 -9 -24 5
-38 2 -53 -12 -12 -11 -22 -18 -23 -16 0 2 -12 -1 -26 -6 -57 -21 -67 -22 -80
-7 -7 9 -10 19 -6 22 4 4 11 2 15 -5 4 -7 16 -10 27 -6 40 13 63 27 57 37 -9
15 19 27 39 16 10 -6 23 -7 28 -4z m306 -21 c-11 -8 -26 -14 -34 -14 -9 0 -12
-6 -8 -16 4 -10 1 -14 -6 -12 -24 8 -17 23 20 44 40 22 59 21 28 -2z m335 9
c13 -16 12 -17 -3 -4 -10 7 -18 15 -18 17 0 8 8 3 21 -13z m-1101 -20 c0 -19
-3 -24 -10 -17 -6 6 -8 18 -4 27 9 24 14 21 14 -10z m356 5 c-16 -9 -36 -3
-36 11 0 5 12 6 26 3 22 -4 24 -6 10 -14z m563 -5 c2 -2 -3 -3 -11 -3 -9 0
-19 7 -22 16 -6 15 -4 15 11 3 10 -7 20 -15 22 -16z m340 24 c-2 -1 -14 -11
-26 -21 -21 -18 -22 -18 -20 3 1 15 8 21 26 21 13 0 22 -1 20 -3z m-4514 -17
c3 -5 1 -10 -4 -10 -6 0 -11 5 -11 10 0 6 2 10 4 10 3 0 8 -4 11 -10z m735 0
c0 -5 -4 -10 -9 -10 -6 0 -13 5 -16 10 -3 6 1 10 9 10 9 0 16 -4 16 -10z m77
4 c-3 -3 -12 -4 -19 -1 -8 3 -5 6 6 6 11 1 17 -2 13 -5z m-990 -10 c-3 -3 -12
-4 -19 -1 -8 3 -5 6 6 6 11 1 17 -2 13 -5z m96 -1 c-13 -2 -35 -2 -50 0 -16 2
-5 4 22 4 28 0 40 -2 28 -4z m4177 -4 c0 -5 5 -9 11 -9 5 0 7 5 4 10 -3 6 -1
10 6 10 7 0 9 -8 6 -21 -5 -18 -2 -20 25 -14 21 5 28 4 24 -4 -4 -6 -2 -11 3
-11 6 0 11 -13 11 -28 0 -27 -2 -28 -50 -28 -27 0 -50 4 -50 8 0 4 -5 7 -12 6
-7 -2 -12 3 -13 10 0 7 -13 21 -29 31 l-29 19 27 14 c32 17 66 20 66 7z m230
-6 c0 -16 -2 -16 -11 -3 -8 11 -12 12 -16 2 -2 -6 -9 -10 -14 -6 -14 8 0 24
22 24 11 0 19 -7 19 -17z m70 2 c11 -13 10 -14 -4 -9 -9 3 -16 10 -16 15 0 13
6 11 20 -6z m-675 -5 c-27 -12 -43 -12 -25 0 8 5 22 9 30 9 10 0 8 -3 -5 -9z
m221 -12 c-2 -13 -6 -33 -10 -45 -7 -23 0 -27 42 -26 6 1 12 -3 12 -7 0 -4 10
-10 23 -14 18 -5 20 -8 7 -16 -12 -8 -10 -10 9 -10 19 0 21 -3 12 -14 -9 -11
-7 -15 10 -19 11 -3 18 -3 15 0 -3 3 2 12 12 19 16 13 16 13 0 14 -20 0 -24
15 -8 25 6 3 13 -1 16 -10 4 -10 13 -14 23 -11 10 4 7 -1 -6 -13 -13 -11 -23
-24 -23 -30 0 -13 -39 -35 -48 -27 -3 3 1 6 9 6 19 1 -20 30 -40 30 -24 0 -92
52 -87 66 3 7 -2 15 -10 18 -8 3 -14 10 -14 17 0 6 7 9 15 5 13 -5 20 5 16 27
0 4 4 7 9 7 6 0 9 3 9 8 -2 11 1 22 5 22 2 0 3 -10 2 -22z m269 12 c3 -5 -1
-10 -9 -10 -9 0 -16 5 -16 10 0 6 4 10 9 10 6 0 13 -4 16 -10z m705 -4 c0 -3
-4 -8 -10 -11 -5 -3 -10 -1 -10 4 0 6 5 11 10 11 6 0 10 -2 10 -4z m-1085 -16
c-3 -5 -12 -10 -18 -10 -7 0 -6 4 3 10 19 12 23 12 15 0z m41 -33 c-20 -19
-36 -32 -36 -29 0 2 -6 -1 -14 -7 -7 -6 -20 -9 -27 -6 -8 3 -30 -3 -50 -13
l-36 -18 16 -33 c9 -17 21 -28 26 -24 4 4 5 3 1 -4 -13 -23 -42 0 -37 29 0 4
-10 3 -23 -2 -15 -5 -27 -5 -35 3 -14 14 -15 30 -1 22 6 -3 10 0 11 7 0 10 2
10 6 1 2 -7 9 -13 14 -13 4 0 6 6 4 13 -6 15 95 60 116 52 10 -4 20 4 29 20 7
14 21 25 31 25 10 0 21 5 24 11 4 6 9 8 12 5 3 -3 -11 -20 -31 -39z m-334 1
c-30 -12 -35 -8 -17 12 14 16 20 17 26 8 5 -8 2 -16 -9 -20z m818 28 c0 -2 -7
-7 -16 -10 -8 -3 -12 -2 -9 4 6 10 25 14 25 6z m-705 -16 c3 -5 2 -10 -4 -10
-5 0 -17 -7 -26 -16 -18 -19 -28 -14 -19 9 3 9 12 13 21 10 11 -4 14 -2 9 5
-4 7 -3 12 3 12 5 0 13 -4 16 -10z m145 5 c0 -2 -10 -9 -22 -15 -22 -11 -22
-10 -4 4 21 17 26 19 26 11z m-320 -32 c0 -22 -2 -25 -10 -13 -13 20 -13 40 0
40 6 0 10 -12 10 -27z m535 2 c33 -26 23 -34 -12 -10 -14 10 -24 12 -28 5 -4
-6 -11 -8 -16 -5 -8 6 9 34 21 35 3 0 19 -11 35 -25z m-3925 6 c0 -5 -7 -11
-14 -14 -10 -4 -13 -1 -9 9 6 15 23 19 23 5z m4225 -25 c18 -14 18 -15 3 -16
-10 0 -18 5 -18 10 0 6 -9 10 -21 10 -18 0 -16 -4 14 -36 19 -21 39 -34 46
-30 16 10 14 26 -4 26 -13 0 -13 2 -3 14 7 7 19 11 26 8 10 -3 11 -7 2 -12 -9
-6 -9 -9 -1 -15 7 -3 9 -15 6 -24 -5 -16 0 -18 30 -14 20 2 35 -1 35 -7 0 -5
-9 -10 -21 -10 -26 0 -47 -21 -41 -40 4 -12 3 -13 -10 -3 -19 16 -75 0 -99
-28 -9 -10 -28 -21 -42 -24 -17 -5 -23 -12 -20 -25 3 -12 -3 -19 -20 -24 -14
-3 -27 -14 -30 -24 -3 -13 -7 -10 -16 12 -10 26 -9 33 14 66 29 42 31 53 10
70 -8 7 -12 16 -9 21 3 5 1 9 -4 9 -6 0 -12 6 -15 13 -4 10 3 10 27 -2 26 -13
32 -22 32 -46 -1 -16 -5 -36 -10 -43 -6 -10 -3 -13 10 -10 14 3 18 12 17 30
-1 18 4 28 15 30 14 3 13 8 -9 30 -40 40 -42 55 -8 70 16 7 29 16 29 20 0 5 9
8 21 8 12 0 17 4 13 11 -8 13 19 0 51 -25z m70 24 c-3 -6 2 -13 11 -17 10 -4
19 -2 22 5 5 15 32 3 32 -14 0 -16 33 -18 61 -4 14 8 19 7 19 -1 0 -6 6 -9 14
-6 17 7 40 -18 31 -33 -10 -15 -23 -12 -28 8 -4 14 -6 14 -12 -5 -4 -13 -12
-20 -17 -17 -6 4 -8 -2 -3 -15 7 -24 0 -27 -21 -7 -7 8 -23 12 -34 9 -12 -3
-20 0 -20 7 0 7 -8 9 -22 4 -19 -6 -21 -4 -11 7 8 10 9 20 3 29 -6 8 -10 12
-10 8 0 -4 -10 3 -22 15 -19 18 -20 23 -8 29 21 9 22 9 15 -2z m-1153 -30 c3
-17 1 -33 -4 -36 -4 -3 -8 11 -8 30 0 44 6 47 12 6z m184 15 c-19 -15 -19 -15
1 -15 12 0 25 -4 28 -10 3 -6 -5 -10 -19 -10 -15 0 -26 -7 -29 -17 -3 -10 -5
-2 -6 17 -2 32 -3 33 -16 17 -8 -12 -22 -17 -37 -14 l-23 4 23 8 c12 4 22 11
22 16 0 6 20 12 65 17 6 1 1 -5 -9 -13z m-3576 -5 c0 -5 -2 -10 -4 -10 -3 0
-8 5 -11 10 -3 6 -1 10 4 10 6 0 11 -4 11 -10z m55 0 c-3 -5 -16 -10 -28 -10
-18 0 -19 2 -7 10 20 13 43 13 35 0z m3675 -5 c0 -8 -4 -15 -10 -15 -5 0 -10
7 -10 15 0 8 5 15 10 15 6 0 10 -7 10 -15z m320 -10 c-7 -8 -17 -15 -22 -15
-11 0 14 29 26 30 5 0 3 -7 -4 -15z m-3583 -1 c-3 -3 -12 -4 -19 -1 -8 3 -5 6
6 6 11 1 17 -2 13 -5z m4333 -4 c0 -5 -12 -10 -27 -9 l-28 1 25 8 c14 4 26 8
28 9 1 1 2 -3 2 -9z m-1016 -21 c-2 -4 -15 -6 -30 -6 -14 0 -21 2 -15 6 5 4
19 7 30 7 11 0 18 -3 15 -7z m198 -1 c38 -23 61 -50 61 -75 0 -32 -6 -35 -37
-24 -25 10 -36 31 -16 31 6 0 10 4 10 9 0 5 -8 7 -18 4 -10 -2 -26 5 -36 16
-11 12 -26 21 -34 21 -12 0 -12 3 4 15 24 18 38 19 66 3z m-455 -16 c6 -23 35
-22 65 3 13 11 17 13 11 5 -18 -20 -16 -30 5 -23 15 6 15 5 3 -11 -10 -12 -16
-14 -21 -5 -9 14 -30 3 -30 -17 0 -12 14 -19 23 -11 2 1 11 -5 20 -15 15 -15
15 -19 2 -45 -13 -24 -21 -19 -16 11 3 13 -31 46 -41 40 -15 -9 -39 17 -33 36
3 9 -2 23 -10 30 -14 12 -16 10 -10 -16 4 -23 3 -25 -4 -9 -15 32 -12 45 10
45 12 0 23 -8 26 -18z m113 -2 c0 -5 -2 -10 -4 -10 -3 0 -8 5 -11 10 -3 6 -1
10 4 10 6 0 11 -4 11 -10z m155 -20 c8 -13 -5 -13 -25 0 -13 8 -13 10 2 10 9
0 20 -4 23 -10z m295 0 c0 -5 -5 -10 -11 -10 -5 0 -7 5 -4 10 3 6 8 10 11 10
2 0 4 -4 4 -10z m-415 -10 c3 -5 1 -10 -4 -10 -6 0 -11 5 -11 10 0 6 2 10 4
10 3 0 8 -4 11 -10z m-215 -61 c0 -14 -5 -11 -31 17 l-24 27 28 -18 c15 -9 27
-21 27 -26z m685 31 c3 -5 2 -10 -4 -10 -5 0 -13 5 -16 10 -3 6 -2 10 4 10 5
0 13 -4 16 -10z m115 -1 c0 -5 5 -7 12 -3 8 5 9 2 5 -10 -4 -10 -7 -22 -7 -27
0 -5 -7 -9 -15 -9 -8 0 -15 5 -15 10 0 6 5 10 12 10 9 0 9 3 0 12 -15 15 -16
28 -2 28 6 0 10 -5 10 -11z m-557 -16 c-3 -7 -9 -10 -14 -7 -5 3 -16 -2 -25
-10 -18 -18 -34 -21 -34 -6 0 6 7 10 16 10 9 0 14 6 11 13 -3 9 4 13 23 12 18
0 26 -4 23 -12z m864 -15 c-3 -8 -6 -5 -6 6 -1 11 2 17 5 13 3 -3 4 -12 1 -19z
m-369 -18 c7 0 12 -4 12 -10 0 -5 -2 -10 -5 -10 -13 0 -55 33 -55 43 0 5 8 3
18 -6 10 -10 24 -17 30 -17z m104 8 c-7 -7 -12 -8 -12 -2 0 14 12 26 19 19 2
-3 -1 -11 -7 -17z m-722 2 c0 -5 -4 -10 -10 -10 -5 0 -10 5 -10 10 0 6 5 10
10 10 6 0 10 -4 10 -10z m390 0 c0 -5 -2 -10 -4 -10 -3 0 -8 5 -11 10 -3 6 -1
10 4 10 6 0 11 -4 11 -10z m158 -14 c9 -21 8 -25 -9 -29 -12 -3 -22 0 -26 9
-3 8 -15 14 -27 14 -21 1 -21 1 -2 15 29 22 51 18 64 -9z m-3442 -8 c-11 -6
-60 -22 -110 -35 -164 -43 -462 -42 -561 2 l-30 14 35 -7 c19 -4 132 -6 250
-6 176 1 230 5 300 21 47 11 96 21 110 21 23 1 24 1 6 -10z m3159 2 c3 -5 1
-10 -5 -10 -6 0 -9 -4 -5 -9 3 -5 2 -12 -3 -15 -4 -2 -9 6 -10 20 -2 24 12 33
23 14z m176 -17 c2 1 3 0 2 -2 -2 -2 5 -10 15 -18 12 -10 13 -13 2 -9 -8 3
-23 9 -32 12 -9 3 -19 12 -22 20 -4 11 -1 12 13 5 10 -6 20 -9 22 -8z m509 -3
c8 -5 11 -10 5 -10 -5 0 -17 5 -25 10 -8 5 -10 10 -5 10 6 0 17 -5 25 -10z
m-360 -8 c0 -13 -12 -22 -22 -16 -10 6 -1 24 13 24 5 0 9 -4 9 -8z m35 -11
c-3 -12 0 -21 10 -25 14 -5 14 -8 -4 -27 -11 -12 -24 -18 -30 -14 -12 7 -5 52
12 73 14 18 19 15 12 -7z m-530 -11 c-3 -5 -15 -10 -26 -10 -11 0 -17 5 -14
10 3 6 15 10 26 10 11 0 17 -4 14 -10z m70 0 c3 -5 -3 -10 -14 -10 -12 0 -21
5 -21 10 0 6 6 10 14 10 8 0 18 -4 21 -10z m514 -29 c-6 -18 -14 -30 -17 -27
-2 3 1 19 8 36 16 40 23 33 9 -9z m-438 20 c21 11 39 5 39 -13 0 -5 -7 -7 -16
-4 -11 4 -18 -1 -21 -14 -4 -16 -11 -19 -32 -14 -14 4 -30 11 -36 17 -7 7 -5
8 7 4 11 -4 18 1 23 16 4 13 8 17 11 10 4 -10 11 -10 25 -2z m287 -10 c10 -6
7 -10 -12 -13 -25 -5 -33 1 -19 15 8 9 15 9 31 -2z m-194 -17 c9 -3 16 -12 16
-20 0 -8 5 -14 12 -14 6 0 8 -3 5 -6 -9 -10 -127 -15 -127 -6 0 9 39 36 77 51
1 1 8 -2 17 -5z m-184 -25 c0 -12 -30 -32 -38 -24 -4 4 -1 10 7 13 11 4 11 6
0 13 -10 6 -7 8 9 6 12 0 22 -4 22 -8z m65 -19 c-3 -5 -10 -10 -16 -10 -5 0
-9 5 -9 10 0 6 7 10 16 10 8 0 12 -4 9 -10z m95 -40 c0 -5 -4 -10 -9 -10 -6 0
-13 5 -16 10 -3 6 1 10 9 10 9 0 16 -4 16 -10z m135 -4 c14 -8 22 -17 16 -20
-5 -4 -25 3 -43 14 -38 23 -16 28 27 6z m-55 -16 c0 -5 -15 -10 -32 -10 -25 0
-29 3 -18 10 20 13 50 13 50 0z m380 -15 c0 -9 -44 -23 -54 -17 -5 3 -1 9 10
13 23 9 44 11 44 4z m70 -5 c0 -5 -9 -10 -20 -10 -11 0 -20 5 -20 10 0 6 9 10
20 10 11 0 20 -4 20 -10z"/>
<path d="M7937 2244 c-11 -11 3 -24 24 -24 12 0 19 5 17 13 -5 14 -31 21 -41
11z"/>
<path d="M7273 2133 c-3 -10 -8 -21 -10 -25 -2 -4 3 -5 12 -2 10 4 14 1 12 -7
-2 -8 -2 -11 0 -6 3 4 12 7 21 7 10 0 13 3 7 8 -5 4 -10 13 -10 21 0 22 -24
25 -32 4z"/>
<path d="M6990 2120 c0 -5 4 -10 9 -10 6 0 13 5 16 10 3 6 -1 10 -9 10 -9 0
-16 -4 -16 -10z"/>
<path d="M7010 2101 c0 -5 6 -12 13 -14 9 -4 8 -8 -3 -17 -11 -9 -12 -13 -2
-17 7 -2 19 -11 26 -19 17 -16 26 -18 26 -5 0 5 -9 12 -19 16 -15 5 -19 13
-16 36 2 20 -1 29 -11 29 -8 0 -14 -4 -14 -9z"/>
<path d="M6745 2080 c10 -11 25 -20 33 -20 9 0 6 7 -11 20 -14 11 -29 20 -33
20 -4 0 1 -9 11 -20z"/>
<path d="M6870 2070 c-11 -11 -20 -24 -20 -30 0 -14 18 -12 23 3 2 6 4 -2 5
-20 0 -17 -5 -34 -11 -36 -7 -2 -4 -3 6 -2 9 2 17 0 17 -4 0 -4 9 -17 20 -29
l21 -22 -23 0 c-21 -1 -22 -1 -5 -11 14 -8 22 -8 30 0 6 6 20 11 30 11 16 0
17 3 7 15 -7 8 -16 12 -21 9 -5 -3 -9 0 -9 5 0 6 -6 11 -13 11 -21 0 -44 49
-29 59 7 4 10 15 6 24 -5 13 0 17 20 17 15 0 29 -6 32 -14 3 -8 12 -12 20 -9
10 3 12 0 9 -10 -4 -8 0 -21 7 -28 19 -20 21 -41 6 -50 -7 -4 -9 -11 -4 -16 4
-4 12 0 17 10 6 9 21 17 34 17 14 0 25 5 25 10 0 6 -5 10 -11 10 -13 0 -49 38
-49 51 0 5 -10 17 -22 29 -29 27 -91 27 -118 0z"/>
<path d="M7070 2080 c0 -5 7 -10 15 -10 8 0 15 5 15 10 0 6 -7 10 -15 10 -8 0
-15 -4 -15 -10z"/>
<path d="M7317 2083 c-4 -3 -7 -11 -7 -17 0 -6 5 -5 12 2 6 6 9 14 7 17 -3 3
-9 2 -12 -2z"/>
<path d="M8021 2074 c0 -11 3 -14 6 -6 3 7 2 16 -1 19 -3 4 -6 -2 -5 -13z"/>
<path d="M6633 2063 c9 -2 23 -2 30 0 6 3 -1 5 -18 5 -16 0 -22 -2 -12 -5z"/>
<path d="M7105 2060 c-3 -5 -1 -10 4 -10 6 0 11 5 11 10 0 6 -2 10 -4 10 -3 0
-8 -4 -11 -10z"/>
<path d="M6808 2053 c6 -2 18 -2 25 0 6 3 1 5 -13 5 -14 0 -19 -2 -12 -5z"/>
<path d="M6640 2035 c-17 -20 -3 -39 16 -21 16 16 19 36 5 36 -5 0 -14 -7 -21
-15z"/>
<path d="M6703 2033 c-7 -2 -13 -12 -13 -21 1 -16 1 -16 11 0 6 11 16 15 26
11 11 -4 14 -3 9 5 -8 13 -13 14 -33 5z"/>
<path d="M6760 2015 l-25 -15 23 -6 c12 -3 22 -12 22 -20 0 -10 -6 -11 -22 -5
-26 9 -100 3 -93 -9 2 -4 16 -6 30 -5 14 2 25 -1 25 -7 0 -6 9 -8 20 -5 11 3
20 4 20 2 0 -2 3 -11 7 -21 5 -14 2 -16 -23 -11 -26 5 -27 4 -10 -9 12 -9 23
-10 31 -4 6 5 16 5 25 0 13 -8 12 -10 -3 -10 -14 0 -15 -3 -5 -13 14 -16 55
-14 71 2 16 16 48 13 70 -6 19 -18 20 -17 8 5 -7 13 -23 27 -37 32 -14 6 -33
23 -42 40 -11 20 -24 29 -36 28 -11 -2 -21 2 -23 8 -2 7 5 10 20 7 24 -5 45
12 32 25 -3 3 -10 0 -15 -8 -8 -12 -10 -12 -16 3 -7 21 -21 21 -54 2z m73 -83
c15 -16 24 -31 20 -35 -12 -13 -22 -7 -16 9 4 12 0 14 -21 8 -16 -4 -26 -2
-26 5 0 6 5 11 11 11 8 0 8 5 -1 15 -22 27 5 16 33 -13z"/>
<path d="M6925 2010 c-3 -5 -1 -10 4 -10 6 0 11 5 11 10 0 6 -2 10 -4 10 -3 0
-8 -4 -11 -10z"/>
<path d="M7510 2000 c-8 -5 -12 -12 -9 -15 8 -8 39 5 39 16 0 11 -11 11 -30
-1z"/>
<path d="M6660 1990 c0 -5 5 -10 10 -10 6 0 10 5 10 10 0 6 -4 10 -10 10 -5 0
-10 -4 -10 -10z"/>
<path d="M6951 1982 c-1 -18 28 -27 42 -12 10 10 7 12 -10 7 -12 -2 -24 0 -27
7 -3 7 -5 7 -5 -2z"/>
<path d="M7918 1962 c-4 -15 -1 -18 14 -14 11 2 16 8 11 11 -4 3 -11 10 -14
14 -4 4 -9 -1 -11 -11z"/>
<path d="M7180 1961 c0 -6 5 -13 11 -17 8 -5 8 -8 0 -13 -7 -5 -5 -14 8 -28
11 -11 17 -24 14 -27 -4 -3 -1 -6 5 -6 15 0 15 6 2 30 -7 13 -7 21 0 25 17 11
11 25 -11 25 -11 0 -17 5 -14 10 3 6 1 10 -4 10 -6 0 -11 -4 -11 -9z"/>
<path d="M7876 1952 c-2 -4 -1 -14 5 -22 5 -8 9 -13 10 -10 0 3 2 13 4 23 3
17 -10 24 -19 9z"/>
<path d="M7571 1933 c-1 -12 4 -25 9 -28 6 -3 10 -13 10 -21 0 -8 -4 -14 -10
-14 -5 0 -10 7 -10 15 0 8 -4 15 -10 15 -5 0 -10 -7 -10 -15 0 -8 -4 -15 -10
-15 -5 0 -7 13 -3 30 6 33 -15 44 -24 12 -2 -11 -19 -25 -38 -32 -28 -11 -32
-16 -26 -39 9 -32 27 -29 24 5 -1 15 4 24 13 24 8 0 14 -4 14 -9 0 -4 12 -9
28 -9 66 -4 82 -7 77 -19 -6 -16 -3 -16 29 1 l27 14 -31 13 c-24 11 -30 19
-27 36 2 12 0 20 -5 17 -4 -3 -12 5 -17 18 -10 23 -10 23 -10 1z"/>
<path d="M7250 1930 c0 -5 5 -10 10 -10 6 0 10 5 10 10 0 6 -4 10 -10 10 -5 0
-10 -4 -10 -10z"/>
<path d="M7778 1933 c-26 -7 -22 -33 5 -33 16 0 23 6 23 20 0 11 -3 19 -6 19
-3 -1 -13 -3 -22 -6z"/>
<path d="M7250 1900 c0 -9 32 -30 46 -30 4 0 -1 9 -11 20 -19 21 -35 26 -35
10z"/>
<path d="M7380 1896 c0 -19 -4 -20 -30 -4 -15 10 -22 10 -31 1 -9 -9 -6 -11
12 -7 21 5 22 4 6 -6 -17 -11 -17 -13 3 -30 12 -11 20 -23 17 -27 -3 -5 3 -9
14 -9 24 0 24 2 -6 30 -27 25 -24 42 5 24 14 -9 24 -9 42 0 23 12 23 12 1 6
-17 -4 -21 -2 -17 9 3 8 1 18 -5 22 -6 3 -11 -1 -11 -9z"/>
<path d="M7635 1890 c3 -5 11 -10 16 -10 6 0 7 5 4 10 -3 6 -11 10 -16 10 -6
0 -7 -4 -4 -10z"/>
<path d="M7237 1849 c8 -8 16 -8 30 0 16 9 14 10 -11 11 -22 0 -27 -3 -19 -11z"/>
<path d="M6835 1840 c-3 -6 1 -7 9 -4 18 7 21 14 7 14 -6 0 -13 -4 -16 -10z"/>
<path d="M7845 1840 c3 -5 8 -10 11 -10 2 0 4 5 4 10 0 6 -5 10 -11 10 -5 0
-7 -4 -4 -10z"/>
<path d="M7530 1826 c0 -8 51 -13 56 -5 3 5 -9 9 -25 9 -17 0 -31 -2 -31 -4z"/>
<path d="M7780 1780 c-7 -5 0 -7 18 -6 17 1 33 3 35 6 9 8 -40 8 -53 0z"/>
<path d="M7137 1709 c7 -7 15 -10 18 -7 3 3 -2 9 -12 12 -14 6 -15 5 -6 -5z"/>
<path d="M7397 1649 c7 -7 15 -10 18 -7 3 3 -2 9 -12 12 -14 6 -15 5 -6 -5z"/>
<path d="M5080 1840 c0 -5 5 -10 10 -10 6 0 10 5 10 10 0 6 -4 10 -10 10 -5 0
-10 -4 -10 -10z"/>
<path d="M4917 1809 c-13 -15 -14 -19 -3 -19 17 0 40 26 28 34 -5 3 -16 -4
-25 -15z"/>
<path d="M5130 1810 c0 -5 5 -10 10 -10 6 0 10 5 10 10 0 6 -4 10 -10 10 -5 0
-10 -4 -10 -10z"/>
<path d="M5375 1810 c27 -12 35 -12 35 0 0 6 -12 10 -27 9 -25 0 -26 -1 -8 -9z"/>
<path d="M4996 1794 c-5 -14 21 -40 31 -30 3 3 1 6 -5 6 -7 0 -12 5 -12 11 0
6 9 8 20 4 11 -3 20 -2 20 3 0 15 -48 21 -54 6z"/>
<path d="M4865 1740 c3 -5 12 -7 20 -3 21 7 19 13 -6 13 -11 0 -18 -4 -14 -10z"/>
<path d="M5036 1717 c3 -10 9 -15 12 -12 3 3 0 11 -7 18 -10 9 -11 8 -5 -6z"/>
<path d="M4740 1700 c0 -5 5 -10 10 -10 6 0 10 5 10 10 0 6 -4 10 -10 10 -5 0
-10 -4 -10 -10z"/>
<path d="M4838 1703 c7 -3 16 -2 19 1 4 3 -2 6 -13 5 -11 0 -14 -3 -6 -6z"/>
<path d="M5619 1683 l-24 -28 28 24 c15 14 27 26 27 28 0 8 -8 1 -31 -24z"/>
<path d="M4776 1691 c-4 -7 -5 -15 -2 -18 9 -9 19 4 14 18 -4 11 -6 11 -12 0z"/>
<path d="M5010 1696 c0 -2 7 -7 16 -10 8 -3 12 -2 9 4 -6 10 -25 14 -25 6z"/>
<path d="M5005 1660 c-4 -7 -16 -9 -27 -7 -11 3 -21 0 -25 -9 -3 -9 -13 -12
-24 -9 -13 4 -19 1 -19 -9 0 -9 -8 -14 -20 -13 -11 1 -20 5 -20 9 0 4 -4 8
-10 8 -5 0 -7 -7 -4 -15 4 -9 -3 -16 -20 -21 -14 -3 -26 -11 -26 -18 0 -6 -5
-4 -10 4 -5 8 -10 10 -10 4 0 -6 7 -17 15 -24 12 -10 15 -10 15 4 0 15 41 23
88 17 6 -1 12 5 12 13 0 8 5 18 12 22 8 5 9 -3 5 -29 -5 -32 -3 -37 13 -37 10
0 22 5 26 12 5 8 2 9 -9 5 -14 -5 -17 0 -17 24 0 28 2 31 25 25 14 -4 25 -3
24 1 -4 26 3 35 22 30 12 -3 19 -1 16 6 -5 16 -24 20 -32 7z"/>
<path d="M5050 1656 c0 -18 30 -30 44 -16 7 7 5 10 -7 10 -9 0 -17 5 -17 10 0
6 -4 10 -10 10 -5 0 -10 -6 -10 -14z"/>
<path d="M4814 1635 c8 -8 17 -15 20 -15 3 0 6 7 6 15 0 9 -9 15 -21 15 -18 0
-19 -2 -5 -15z"/>
<path d="M4783 1622 c-13 -2 -23 -8 -23 -13 0 -9 37 -3 49 7 8 7 -4 10 -26 6z"/>
<path d="M4840 1561 c0 -5 8 -15 17 -22 15 -12 16 -12 10 3 -3 9 -1 19 6 22 7
2 2 5 -10 5 -13 1 -23 -3 -23 -8z"/>
<path d="M4906 1545 c4 -8 8 -15 10 -15 2 0 4 7 4 15 0 8 -4 15 -10 15 -5 0
-7 -7 -4 -15z"/>
<path d="M4990 1550 c0 -5 5 -10 11 -10 5 0 7 5 4 10 -3 6 -8 10 -11 10 -2 0
-4 -4 -4 -10z"/>
<path d="M5055 1550 c-3 -6 1 -7 9 -4 18 7 21 14 7 14 -6 0 -13 -4 -16 -10z"/>
<path d="M4974 1515 c21 -16 32 -13 21 4 -3 6 -14 11 -23 11 -15 -1 -15 -2 2
-15z"/>
<path d="M4950 1500 c0 -5 5 -10 11 -10 5 0 7 5 4 10 -3 6 -8 10 -11 10 -2 0
-4 -4 -4 -10z"/>
<path d="M4905 1460 c-3 -5 -14 -10 -24 -10 -10 0 -18 -6 -18 -13 0 -8 6 -14
14 -14 7 0 13 5 13 10 0 5 6 4 14 -2 12 -10 14 -9 12 6 -2 10 2 21 8 25 8 6 8
8 -1 8 -6 0 -15 -4 -18 -10z"/>
<path d="M4935 1450 c-3 -5 -1 -10 4 -10 6 0 11 5 11 10 0 6 -2 10 -4 10 -3 0
-8 -4 -11 -10z"/>
<path d="M4968 1443 c7 -3 16 -2 19 1 4 3 -2 6 -13 5 -11 0 -14 -3 -6 -6z"/>
<path d="M5048 1443 c7 -3 16 -2 19 1 4 3 -2 6 -13 5 -11 0 -14 -3 -6 -6z"/>
<path d="M4815 1390 c-3 -5 -2 -10 4 -10 5 0 13 5 16 10 3 6 2 10 -4 10 -5 0
-13 -4 -16 -10z"/>
<path d="M4560 1540 c0 -5 4 -10 9 -10 6 0 13 5 16 10 3 6 -1 10 -9 10 -9 0
-16 -4 -16 -10z"/>
<path d="M9455 1440 c3 -5 8 -10 11 -10 2 0 4 5 4 10 0 6 -5 10 -11 10 -5 0
-7 -4 -4 -10z"/>
<path d="M9686 1244 c-9 -8 -13 -21 -9 -27 5 -8 9 -6 11 6 2 9 8 15 13 12 5
-4 9 1 9 9 0 20 -5 20 -24 0z"/>
<path d="M9825 1210 c3 -5 8 -10 11 -10 2 0 4 5 4 10 0 6 -5 10 -11 10 -5 0
-7 -4 -4 -10z"/>
<path d="M9760 1192 c0 -6 -7 -9 -15 -6 -8 4 -15 1 -15 -5 0 -6 6 -11 14 -11
17 0 31 18 22 27 -3 4 -6 1 -6 -5z"/>
<path d="M9735 1140 c16 -7 12 -9 -20 -10 -22 -2 -45 -2 -50 -1 -6 0 -26 -16
-45 -36 -33 -35 -26 -38 13 -5 19 17 57 24 57 10 0 -4 -7 -8 -15 -8 -25 0 -17
-29 10 -36 14 -3 29 -13 34 -22 7 -12 10 -8 16 16 3 18 10 32 15 32 4 0 10 9
13 20 3 11 16 24 29 29 25 11 23 12 -37 16 -29 2 -34 1 -20 -5z m9 -39 c3 -5
-5 -16 -19 -25 -28 -18 -45 -21 -45 -6 0 6 7 10 15 10 8 0 15 7 15 15 0 16 25
21 34 6z"/>
<path d="M9776 1101 c-3 -5 0 -11 8 -14 8 -3 17 1 20 9 6 15 -19 20 -28 5z"/>
<path d="M9531 1054 c0 -11 3 -14 6 -6 3 7 2 16 -1 19 -3 4 -6 -2 -5 -13z"/>
<path d="M9557 1025 c-10 -14 -13 -26 -7 -30 5 -3 10 -1 10 6 0 7 7 21 17 31
9 10 12 18 7 18 -5 0 -17 -11 -27 -25z"/>
<path d="M9676 1014 c-9 -24 -7 -27 9 -10 17 17 19 26 6 26 -5 0 -12 -7 -15
-16z"/>
<path d="M9625 1000 c4 -6 11 -8 16 -5 14 9 11 15 -7 15 -8 0 -12 -5 -9 -10z"/>
<path d="M9487 980 c-14 -11 -28 -20 -32 -20 -4 0 -21 -7 -38 -15 -18 -8 -50
-21 -72 -29 -36 -13 -37 -14 -10 -12 32 3 58 11 89 28 21 11 38 -5 29 -30 -5
-11 -1 -13 18 -7 13 4 26 12 27 17 2 5 11 3 20 -4 9 -8 13 -8 9 -2 -4 7 0 14
8 18 31 12 13 24 -30 20 l-46 -4 33 29 c37 34 34 41 -5 11z"/>
<path d="M9555 910 c-3 -5 -2 -10 4 -10 5 0 13 5 16 10 3 6 2 10 -4 10 -5 0
-13 -4 -16 -10z"/>
<path d="M9430 891 c0 -6 4 -13 10 -16 6 -3 7 1 4 9 -7 18 -14 21 -14 7z"/>
<path d="M9040 860 c0 -5 5 -10 10 -10 6 0 10 5 10 10 0 6 -4 10 -10 10 -5 0
-10 -4 -10 -10z"/>
<path d="M8881 827 c2 -1 14 -11 27 -21 22 -19 22 -19 22 2 0 17 -6 22 -27 22
-14 0 -24 -1 -22 -3z"/>
<path d="M8957 789 c8 -8 16 -8 30 0 16 9 14 10 -11 11 -22 0 -27 -3 -19 -11z"/>
<path d="M8365 1260 c3 -5 8 -10 11 -10 2 0 4 5 4 10 0 6 -5 10 -11 10 -5 0
-7 -4 -4 -10z"/>
<path d="M9100 1231 c0 -5 7 -12 16 -15 24 -9 28 -7 14 9 -14 17 -30 20 -30 6z"/>
<path d="M8905 1160 c3 -5 14 -10 23 -10 15 0 15 2 2 10 -20 13 -33 13 -25 0z"/>
<path d="M9215 1160 c3 -5 8 -10 11 -10 2 0 4 5 4 10 0 6 -5 10 -11 10 -5 0
-7 -4 -4 -10z"/>
<path d="M2061 4916 c-9 -10 -7 -15 9 -19 25 -6 32 4 15 20 -10 10 -16 9 -24
-1z"/>
<path d="M9280 4920 c0 -5 5 -10 11 -10 5 0 7 5 4 10 -3 6 -8 10 -11 10 -2 0
-4 -4 -4 -10z"/>
<path d="M2160 4892 c0 -6 -6 -12 -14 -12 -12 0 -26 -20 -26 -38 0 -13 47 -62
60 -62 7 0 10 -7 6 -15 -3 -9 0 -15 8 -15 7 0 19 -18 26 -39 7 -23 18 -37 25
-35 7 3 15 -13 22 -41 9 -39 8 -47 -6 -55 -14 -8 -14 -9 2 -10 9 0 17 -4 17
-9 0 -5 -8 -12 -17 -14 -15 -4 -15 -6 4 -12 27 -9 21 -25 -10 -25 -20 -1 -20
-2 6 -16 15 -8 27 -23 27 -34 0 -10 7 -23 16 -28 15 -8 15 -10 0 -15 -17 -7
-22 -52 -7 -61 4 -3 5 -24 1 -46 -5 -29 -3 -43 6 -51 8 -6 14 -17 14 -24 0 -8
6 -16 13 -19 9 -4 9 -8 1 -11 -14 -7 -6 -45 8 -45 6 0 7 -7 4 -17 -4 -9 1 -24
11 -34 32 -33 42 -47 36 -53 -4 -3 -1 -6 5 -6 6 0 9 -7 5 -16 -5 -13 -2 -15
17 -9 15 5 20 4 16 -4 -4 -6 -1 -14 8 -17 18 -7 10 -34 -10 -34 -8 0 -25 -7
-37 -15 -58 -38 -251 -81 -420 -95 -214 -18 -481 17 -624 80 -24 10 -43 17
-43 15 0 -10 93 -57 156 -79 149 -52 213 -61 449 -60 199 0 233 3 353 28 73
15 161 35 195 46 101 30 249 63 287 63 55 -1 134 -15 150 -27 28 -20 60 -36
74 -36 8 0 22 -7 31 -16 9 -9 18 -14 21 -11 8 8 64 -13 64 -24 0 -5 8 -9 19
-9 10 0 24 -7 31 -15 7 -8 19 -15 26 -15 8 0 14 -4 14 -9 0 -5 12 -11 28 -14
15 -3 39 -17 54 -31 15 -15 35 -26 44 -26 14 0 67 -24 114 -51 8 -5 22 -12 30
-15 27 -11 65 -29 70 -34 9 -9 100 -50 111 -50 6 0 23 -8 37 -19 15 -10 41
-22 59 -25 17 -4 34 -14 37 -22 3 -8 10 -14 17 -14 14 0 168 -74 232 -112 26
-15 52 -26 56 -24 4 3 23 -4 42 -16 19 -11 63 -36 98 -55 67 -35 126 -78 176
-127 l30 -29 8 39 c13 58 2 401 -14 447 -7 21 -25 49 -41 62 -18 16 -24 25
-15 29 6 3 1 3 -12 0 -13 -3 -26 -2 -30 3 -3 5 -77 37 -164 71 -574 229 -937
425 -1475 796 -85 58 -156 106 -159 106 -3 0 -25 14 -50 30 -24 17 -49 30 -55
30 -5 0 -23 11 -40 25 -16 14 -36 25 -43 25 -7 0 -30 16 -51 35 -20 19 -47 35
-60 35 -13 0 -30 10 -38 22 -9 12 -16 17 -16 10z"/>
<path d="M9396 4871 c-4 -5 -2 -12 3 -15 5 -4 12 -2 15 3 4 5 2 12 -3 15 -5 4
-12 2 -15 -3z"/>
<path d="M13346 4613 c-26 -7 -41 -24 -41 -48 0 -16 -8 -21 -42 -23 -36 -3
-44 1 -59 22 -10 16 -26 26 -40 26 -27 0 -33 -24 -9 -34 18 -6 20 -37 4 -53
-9 -9 -19 -6 -41 10 -25 18 -30 19 -38 7 -5 -8 -10 -25 -10 -36 0 -28 -25 -50
-36 -33 -4 7 -2 15 4 17 7 2 12 8 12 13 0 6 -4 8 -9 4 -5 -3 -12 -1 -16 4 -3
6 -12 8 -20 4 -8 -3 -15 0 -15 6 0 6 -5 11 -12 11 -9 0 -9 -3 0 -12 7 -7 12
-19 12 -27 0 -8 7 -22 16 -32 14 -16 13 -18 -15 -24 -17 -4 -31 -11 -31 -16 0
-5 -6 -9 -13 -9 -19 0 -20 -65 -2 -80 8 -7 15 -20 14 -29 0 -10 -2 -11 -6 -3
-2 6 -13 12 -24 12 -10 0 -19 6 -20 13 0 6 -4 3 -9 -8 -8 -21 22 -65 46 -65
14 0 27 27 26 55 -1 16 0 17 4 3 10 -32 24 -19 24 22 0 38 2 40 25 36 13 -3
29 -7 35 -11 15 -9 2 -25 -21 -25 -10 0 -19 -6 -19 -14 0 -9 8 -12 27 -8 21 4
25 2 20 -12 -5 -12 0 -16 18 -17 14 -1 31 -2 38 -3 18 -1 28 -45 15 -66 -8
-13 -18 -16 -32 -11 -12 4 -32 4 -46 0 -14 -4 -19 -7 -12 -8 17 -1 15 -31 -3
-31 -8 0 -15 5 -15 10 0 6 -12 10 -27 10 -33 0 -58 14 -58 32 0 7 -8 13 -17
13 -10 0 -24 9 -31 19 -13 18 -14 18 -19 -12 -2 -17 -1 -29 2 -27 4 2 20 -9
35 -25 23 -24 25 -30 12 -30 -10 0 -17 -8 -17 -19 0 -11 -3 -26 -6 -35 -4 -11
0 -16 14 -16 27 0 35 -15 17 -30 -21 -17 -19 -30 5 -30 11 0 20 5 20 12 0 6 3
9 6 5 3 -3 3 -15 -1 -26 -7 -22 -47 -29 -74 -12 -11 7 -10 11 5 20 17 9 16 10
-8 11 -15 0 -30 5 -33 10 -11 18 -25 10 -25 -15 0 -15 6 -25 15 -25 8 0 19 -8
24 -18 5 -10 27 -27 48 -38 21 -10 44 -25 51 -31 20 -19 82 -17 82 2 0 8 6 15
14 15 17 0 39 -26 32 -38 -3 -6 1 -15 9 -22 11 -9 22 -5 54 20 42 34 65 33 55
-4 -4 -17 1 -25 21 -34 15 -7 31 -10 36 -7 5 4 9 1 9 -4 0 -6 -5 -11 -11 -11
-5 0 -7 -5 -3 -11 4 -8 11 -4 18 10 7 12 15 19 19 15 4 -4 1 -14 -6 -22 -10
-13 -9 -15 7 -9 11 5 23 2 30 -7 6 -8 21 -17 34 -21 l23 -7 -3 109 c-3 93 -5
108 -20 111 -11 2 -18 -3 -18 -12 0 -13 -6 -15 -27 -10 -44 10 -47 10 -48 -6
0 -8 -7 -15 -15 -15 -8 0 -18 -4 -22 -10 -5 -6 -12 -5 -20 3 -10 10 -9 14 8
18 12 3 28 17 35 31 12 23 14 23 26 7 12 -16 13 -16 19 0 4 10 3 21 -2 25 -21
20 -100 57 -111 54 -7 -3 -13 0 -13 5 0 6 5 12 10 14 14 4 -11 58 -27 58 -7 0
-13 11 -13 25 0 16 6 25 16 25 8 0 13 4 9 10 -9 14 17 49 32 43 15 -6 18 13 3
22 -8 5 -7 11 1 21 8 10 8 14 0 14 -6 0 -11 4 -11 9 0 5 9 7 20 4 14 -4 23 3
34 28 8 19 15 28 15 22 1 -7 14 -13 29 -13 20 0 33 -7 42 -24 7 -13 21 -27 31
-29 22 -6 26 8 4 16 -12 5 -12 10 0 34 21 39 20 153 0 153 -19 0 -19 9 2 32
13 14 14 23 5 42 -7 17 -7 27 1 35 12 12 0 13 -37 4z m-122 -179 c6 -17 1 -18
-25 -3 -11 5 -17 14 -14 19 7 12 32 2 39 -16z m122 -20 c29 8 38 -7 22 -34
-15 -24 -68 -28 -68 -5 0 8 -9 15 -20 15 -22 0 -23 1 -14 24 4 12 11 13 32 5
14 -6 36 -8 48 -5z m-165 -104 c17 0 9 -29 -10 -40 -22 -11 -51 -4 -51 14 0
18 23 37 38 31 8 -3 18 -5 23 -5z m-71 -180 c0 -5 -4 -10 -10 -10 -5 0 -10 5
-10 10 0 6 5 10 10 10 6 0 10 -4 10 -10z m3 -87 c10 -9 -31 -35 -43 -28 -15
10 -12 23 8 28 27 7 28 7 35 0z m153 -150 c-10 -10 -19 5 -10 18 6 11 8 11 12
0 2 -7 1 -15 -2 -18z m66 -23 c18 -16 27 -30 20 -30 -7 0 -10 -4 -7 -10 3 -5
1 -10 -4 -10 -6 0 -11 4 -11 9 0 5 -9 11 -20 14 -11 3 -19 11 -18 19 2 7 -2
12 -9 11 -7 -2 -10 4 -7 12 9 22 19 19 56 -15z"/>
<path d="M13020 4556 c0 -16 19 -25 38 -19 22 8 13 33 -13 33 -15 0 -25 -6
-25 -14z"/>
<path d="M12820 4395 c0 -8 5 -15 10 -15 6 0 10 7 10 15 0 8 -4 15 -10 15 -5
0 -10 -7 -10 -15z"/>
<path d="M13275 4320 c-3 -5 1 -10 9 -10 8 0 18 5 21 10 3 6 -1 10 -9 10 -8 0
-18 -4 -21 -10z"/>
<path d="M12770 4271 c0 -13 37 -24 51 -15 8 4 7 9 -2 15 -19 12 -49 11 -49 0z"/>
<path d="M13305 4254 c-37 -19 -67 -45 -60 -52 3 -3 -4 -16 -16 -28 l-21 -22
21 -18 c12 -10 21 -26 21 -36 0 -10 7 -18 16 -18 10 0 14 6 10 15 -7 19 3 19
18 1 6 -8 29 -16 51 -18 l40 -3 3 69 c3 65 2 68 -18 63 -14 -3 -20 -1 -17 6 2
7 12 11 21 11 26 -3 19 26 -10 36 -31 12 -23 13 -59 -6z"/>
<path d="M13106 4222 c-3 -6 -1 -14 5 -17 15 -10 25 3 12 16 -7 7 -13 7 -17 1z"/>
<path d="M12877 4156 c-3 -8 1 -17 10 -20 23 -9 28 1 10 18 -13 13 -16 13 -20
2z"/>
<path d="M12748 4135 c-4 -17 3 -31 21 -49 l26 -25 0 40 c1 25 -3 39 -12 39
-7 0 -13 5 -13 10 0 21 -18 9 -22 -15z"/>
<path d="M12845 4060 c-3 -5 3 -10 14 -10 12 0 21 5 21 10 0 6 -6 10 -14 10
-8 0 -18 -4 -21 -10z"/>
<path d="M13355 4000 c3 -5 12 -7 20 -3 21 7 19 13 -6 13 -11 0 -18 -4 -14
-10z"/>
<path d="M12788 3950 c12 -5 22 -14 22 -20 0 -5 8 -10 18 -10 14 0 12 4 -8 20
-14 11 -32 19 -40 19 -8 0 -5 -4 8 -9z"/>
<path d="M12810 3840 c0 -5 9 -14 19 -20 30 -15 33 -12 11 10 -22 22 -30 25
-30 10z"/>
<path d="M12926 3828 c27 -32 38 -38 47 -29 14 14 -16 51 -42 51 -24 0 -24 0
-5 -22z"/>
<path d="M13002 3798 c-5 -54 8 -86 40 -97 34 -12 55 -14 45 -5 -3 4 4 15 16
25 19 16 20 18 5 19 -23 0 -23 16 -1 29 14 7 15 12 5 24 -15 17 -62 11 -79
-12 -8 -10 -12 -11 -13 -4 0 6 5 15 10 18 16 10 11 25 -8 25 -11 0 -19 -8 -20
-22z"/>
<path d="M13130 3760 c0 -5 9 -10 20 -10 11 0 20 5 20 10 0 6 -9 10 -20 10
-11 0 -20 -4 -20 -10z"/>
<path d="M13360 3708 c0 -9 5 -20 11 -23 17 -11 18 -2 3 19 -12 17 -14 17 -14
4z"/>
<path d="M13185 3680 c3 -5 8 -10 11 -10 2 0 4 5 4 10 0 6 -5 10 -11 10 -5 0
-7 -4 -4 -10z"/>
<path d="M13220 3655 c7 -9 15 -14 17 -11 3 2 18 0 34 -4 32 -10 36 -6 15 16
-8 8 -29 14 -47 14 -27 0 -30 -2 -19 -15z"/>
<path d="M3545 3164 c-393 -42 -575 -113 -757 -294 -109 -108 -133 -162 -133
-296 1 -106 10 -134 44 -134 14 0 17 -7 13 -31 -4 -27 3 -38 54 -88 33 -32 86
-70 118 -86 52 -25 56 -30 41 -41 -9 -7 -15 -19 -12 -26 4 -10 6 -10 6 1 1 11
5 10 16 -5 13 -16 16 -17 25 -4 5 8 11 18 12 22 3 8 82 -13 94 -25 4 -4 21 -7
39 -7 17 0 36 -5 43 -12 9 -9 15 -9 24 0 9 9 8 12 -5 12 -9 0 -17 5 -17 10 0
6 21 8 52 6 42 -3 53 -8 53 -22 0 -21 19 -26 115 -30 89 -4 82 2 -12 11 -38 4
-68 10 -68 13 0 4 74 8 164 9 159 1 253 14 361 48 66 21 97 26 91 17 -5 -9
-68 -30 -191 -66 l-50 -14 41 -1 c22 -1 45 4 50 9 12 12 44 3 44 -12 0 -6 -11
-8 -24 -6 -15 3 -27 0 -30 -8 -8 -21 54 -18 69 3 10 14 16 15 28 5 12 -10 16
-10 20 2 4 11 15 13 41 9 34 -5 36 -4 36 21 0 28 20 56 40 56 6 0 9 4 6 8 -2
4 6 9 18 10 16 1 27 -6 34 -23 9 -18 18 -23 44 -23 30 1 88 31 96 51 2 4 9 7
15 7 18 0 119 99 154 151 18 25 35 58 39 72 3 15 11 27 18 27 8 0 10 36 8 125
-3 119 -5 128 -39 197 -52 108 -121 169 -273 245 -93 46 -149 67 -220 82 -97
20 -263 32 -335 25z m-457 -272 c2 -7 -7 -12 -22 -12 -27 0 -35 15 -13 23 17
7 30 3 35 -11z m672 -12 c0 -5 -4 -10 -9 -10 -6 0 -13 5 -16 10 -3 6 1 10 9
10 9 0 16 -4 16 -10z m110 -11 c0 -5 -12 -9 -27 -9 -27 1 -27 1 -9 15 19 14
36 12 36 -6z m95 1 c3 -5 -3 -10 -14 -10 -12 0 -21 5 -21 10 0 6 6 10 14 10 8
0 18 -4 21 -10z m50 -10 c-3 -5 -10 -10 -16 -10 -5 0 -9 5 -9 10 0 6 7 10 16
10 8 0 12 -4 9 -10z m62 -6 c-3 -3 -12 -4 -19 -1 -8 3 -5 6 6 6 11 1 17 -2 13
-5z m-473 -25 c-27 -11 -44 -11 -44 0 0 11 40 20 54 12 5 -2 1 -8 -10 -12z
m-64 -9 c0 -5 -7 -10 -15 -10 -8 0 -15 5 -15 10 0 6 7 10 15 10 8 0 15 -4 15
-10z m130 0 c0 -5 -7 -10 -16 -10 -8 0 -12 5 -9 10 3 6 10 10 16 10 5 0 9 -4
9 -10z m270 -40 c0 -5 -4 -10 -10 -10 -5 0 -10 5 -10 10 0 6 5 10 10 10 6 0
10 -4 10 -10z m-451 -24 c9 -11 6 -12 -14 -8 -14 2 -25 8 -25 13 0 14 26 11
39 -5z m334 -13 c-7 -2 -21 -2 -30 0 -10 3 -4 5 12 5 17 0 24 -2 18 -5z m172
-22 c7 -12 -12 -24 -25 -16 -11 7 -4 25 10 25 5 0 11 -4 15 -9z m-1027 -38 c3
-9 -12 -13 -52 -13 -52 0 -74 9 -59 24 12 12 106 2 111 -11z m72 7 c0 -5 -4
-10 -10 -10 -5 0 -10 5 -10 10 0 6 5 10 10 10 6 0 10 -4 10 -10z m-210 -10 c0
-5 -4 -10 -10 -10 -5 0 -10 5 -10 10 0 6 5 10 10 10 6 0 10 -4 10 -10z m1295
-30 c3 -5 -1 -10 -9 -10 -9 0 -16 5 -16 10 0 6 4 10 9 10 6 0 13 -4 16 -10z
m-1145 -20 c0 -13 -7 -20 -20 -20 -23 0 -25 5 -7 25 17 20 27 18 27 -5z m-210
-10 c0 -5 -8 -10 -17 -10 -15 0 -16 2 -3 10 19 12 20 12 20 0z m1261 -10 c11
0 18 -4 14 -9 -8 -14 -58 -6 -63 9 -3 9 1 11 12 7 10 -4 27 -7 37 -7z m-1021
-10 c0 -5 -4 -10 -10 -10 -5 0 -10 5 -10 10 0 6 5 10 10 10 6 0 10 -4 10 -10z
m1118 -5 c3 -3 -11 -5 -32 -5 -22 0 -35 4 -31 10 6 10 52 6 63 -5z m-1183 -5
c3 -5 -1 -10 -9 -10 -8 0 -18 5 -21 10 -3 6 1 10 9 10 8 0 18 -4 21 -10z m12
-46 c-3 -3 -12 -4 -19 -1 -8 3 -5 6 6 6 11 1 17 -2 13 -5z m127 -10 c26 -10
18 -21 -14 -21 -18 0 -30 6 -30 14 0 14 18 17 44 7z m132 -44 c21 -10 32 -19
23 -20 -16 0 -79 28 -79 36 0 8 17 4 56 -16z m434 -39 c-28 -16 -125 -17 -115
-1 3 6 34 10 68 10 40 -1 57 -4 47 -9z m415 -171 c-3 -5 -11 -10 -16 -10 -6 0
-7 5 -4 10 3 6 11 10 16 10 6 0 7 -4 4 -10z m-38 -16 c-3 -3 -12 -4 -19 -1 -8
3 -5 6 6 6 11 1 17 -2 13 -5z m-593 -33 c13 -20 -61 -28 -125 -13 -30 6 -25 8
36 13 39 3 73 6 77 7 4 1 9 -2 12 -7z m-429 -11 c3 -5 2 -10 -4 -10 -5 0 -13
5 -16 10 -3 6 -2 10 4 10 5 0 13 -4 16 -10z m850 -70 c-28 -12 -37 -12 -30 0
3 6 16 10 28 9 21 0 21 -1 2 -9z"/>
<path d="M6391 3154 c0 -11 3 -14 6 -6 3 7 2 16 -1 19 -3 4 -6 -2 -5 -13z"/>
<path d="M751 3070 c-323 -45 -610 -206 -716 -401 -25 -46 -30 -68 -33 -146
-4 -86 -2 -96 26 -158 17 -36 29 -72 26 -79 -3 -8 19 -40 50 -74 66 -71 194
-140 321 -173 103 -28 365 -37 499 -19 260 35 532 167 648 313 48 61 80 127
80 164 1 16 5 54 10 86 11 71 -4 154 -37 213 -37 63 -137 149 -220 189 -126
61 -245 86 -430 90 -88 2 -189 0 -224 -5z m44 -20 c3 -6 -5 -10 -19 -10 -13 0
-31 -3 -40 -6 -9 -3 -16 -1 -16 4 0 6 12 13 28 15 15 2 30 5 34 6 4 0 10 -3
13 -9z m-92 -17 c-7 -2 -19 -2 -25 0 -7 3 -2 5 12 5 14 0 19 -2 13 -5z m-56
-9 c-3 -3 -12 -4 -19 -1 -8 3 -5 6 6 6 11 1 17 -2 13 -5z m469 -874 c-116 -45
-383 -75 -481 -53 -33 8 -14 10 105 16 131 6 243 21 340 46 66 17 89 11 36 -9z"/>
<path d="M4415 2910 c-4 -45 -5 -83 -2 -86 3 -3 8 31 12 76 4 45 5 83 2 86 -3
3 -8 -31 -12 -76z"/>
<path d="M9150 2660 c-35 -5 -13 -6 59 -4 63 2 116 6 118 8 7 6 -118 3 -177
-4z"/>
<path d="M9403 2653 c15 -2 39 -2 55 0 15 2 2 4 -28 4 -30 0 -43 -2 -27 -4z"/>
<path d="M9598 2623 c7 -3 16 -2 19 1 4 3 -2 6 -13 5 -11 0 -14 -3 -6 -6z"/>
<path d="M9460 2606 c0 -2 14 -6 30 -8 17 -3 30 -1 30 4 0 4 -13 8 -30 8 -16
0 -30 -2 -30 -4z"/>
<path d="M9545 2591 c11 -5 36 -10 55 -10 20 -1 69 -10 110 -21 214 -59 329
-129 409 -250 32 -49 36 -62 36 -120 0 -86 -30 -145 -114 -221 -35 -33 -59
-59 -53 -59 6 0 41 28 78 63 106 98 136 190 98 302 -31 90 -178 214 -314 264
-19 7 -44 17 -55 21 -59 23 -296 52 -250 31z"/>
<path d="M9315 2550 c3 -5 16 -10 28 -10 18 0 19 2 7 10 -20 13 -43 13 -35 0z"/>
<path d="M4421 2450 c0 -8 4 -24 9 -35 5 -13 9 -14 9 -5 0 8 -4 24 -9 35 -5
13 -9 14 -9 5z"/>
<path d="M9830 2390 c0 -5 5 -10 10 -10 6 0 10 5 10 10 0 6 -4 10 -10 10 -5 0
-10 -4 -10 -10z"/>
<path d="M9881 2367 c-15 -19 -2 -29 15 -12 8 7 14 16 14 19 0 11 -17 6 -29
-7z"/>
<path d="M9906 2317 c3 -10 9 -15 12 -12 3 3 0 11 -7 18 -10 9 -11 8 -5 -6z"/>
<path d="M9355 2250 c-3 -5 -1 -10 4 -10 6 0 11 5 11 10 0 6 -2 10 -4 10 -3 0
-8 -4 -11 -10z"/>
<path d="M9951 2192 c-1 -30 -9 -69 -20 -90 -27 -53 -124 -135 -175 -148 -14
-3 -30 -13 -35 -22 -5 -9 -21 -15 -39 -14 -35 1 -52 -14 -49 -46 2 -26 1 -26
18 -5 10 11 10 14 2 9 -7 -4 -13 -2 -13 4 0 20 31 22 53 4 19 -17 20 -17 8 -1
-16 20 -14 24 14 29 11 1 27 10 35 18 8 8 29 22 45 30 17 8 33 19 36 24 4 5
15 -1 25 -13 25 -29 38 -27 18 4 -16 25 -16 26 24 63 52 47 74 106 63 164 l-9
43 -1 -53z"/>
<path d="M2870 2191 c0 -5 5 -13 10 -16 6 -3 10 -2 10 4 0 5 -4 13 -10 16 -5
3 -10 2 -10 -4z"/>
<path d="M2854 2164 c85 -58 268 -124 336 -122 19 1 62 -6 95 -15 129 -36 380
-14 587 52 70 23 96 41 53 38 -14 -1 -29 -7 -33 -13 -4 -6 -18 -15 -31 -19
-18 -5 -22 -4 -16 6 6 9 3 11 -9 6 -10 -4 -24 -7 -32 -7 -9 0 -13 -4 -9 -9 7
-13 -19 -20 -85 -23 -30 -2 -58 -7 -62 -13 -13 -17 -304 -18 -364 0 -29 8 -72
15 -97 15 -31 0 -47 5 -51 15 -3 8 -10 15 -16 15 -6 0 -8 -5 -4 -11 4 -8 -1
-9 -17 -5 -72 20 -99 30 -99 39 0 5 -6 7 -14 4 -14 -5 -82 25 -127 56 -13 10
-28 17 -34 17 -5 0 8 -12 29 -26z"/>
<path d="M9356 2171 c-4 -6 -3 -19 3 -28 9 -17 10 -17 17 0 8 21 -10 45 -20
28z"/>
<path d="M2970 2154 c0 -8 5 -12 10 -9 6 4 8 11 5 16 -9 14 -15 11 -15 -7z"/>
<path d="M4030 2155 c-16 -9 -19 -14 -9 -15 8 0 24 7 35 15 24 18 7 19 -26 0z"/>
<path d="M3000 2151 c0 -12 24 -41 34 -41 3 0 3 7 0 15 -4 9 0 15 10 15 9 0
16 -4 16 -10 0 -5 8 -10 18 -10 11 0 13 -3 5 -8 -6 -4 9 -8 33 -9 60 -2 65 13
6 22 -26 4 -53 11 -59 17 -7 6 -19 8 -27 5 -7 -3 -19 0 -25 6 -8 8 -11 8 -11
-2z"/>
<path d="M9286 2145 c10 -8 24 -14 29 -14 6 0 1 6 -9 14 -11 8 -24 15 -30 15
-5 0 -1 -7 10 -15z"/>
<path d="M3218 2143 c7 -3 16 -2 19 1 4 3 -2 6 -13 5 -11 0 -14 -3 -6 -6z"/>
<path d="M3638 2123 c7 -3 16 -2 19 1 4 3 -2 6 -13 5 -11 0 -14 -3 -6 -6z"/>
<path d="M3463 2113 c-7 -2 -13 -9 -13 -14 0 -6 6 -7 13 -2 6 4 18 8 25 9 8 2
16 5 20 8 6 7 -28 6 -45 -1z"/>
<path d="M9335 2110 c3 -5 8 -10 11 -10 2 0 4 5 4 10 0 6 -5 10 -11 10 -5 0
-7 -4 -4 -10z"/>
<path d="M3260 2103 c0 -4 5 -15 10 -23 8 -13 10 -13 10 2 0 9 -4 20 -10 23
-5 3 -10 3 -10 -2z"/>
<path d="M9530 2077 c0 -15 4 -27 8 -27 10 0 9 36 -1 46 -4 4 -7 -5 -7 -19z"/>
<path d="M3496 2075 c4 -8 8 -15 10 -15 2 0 4 7 4 15 0 8 -4 15 -10 15 -5 0
-7 -7 -4 -15z"/>
<path d="M9245 2070 c-3 -5 -1 -10 4 -10 6 0 11 5 11 10 0 6 -2 10 -4 10 -3 0
-8 -4 -11 -10z"/>
<path d="M9810 2069 c0 -5 5 -7 10 -4 6 3 10 8 10 11 0 2 -4 4 -10 4 -5 0 -10
-5 -10 -11z"/>
<path d="M9400 2061 c0 -5 7 -11 15 -15 9 -3 15 0 15 9 0 8 -7 15 -15 15 -8 0
-15 -4 -15 -9z"/>
<path d="M3528 2053 c6 -2 18 -2 25 0 6 3 1 5 -13 5 -14 0 -19 -2 -12 -5z"/>
<path d="M9490 2039 c0 -8 14 -29 30 -48 39 -43 38 -33 0 21 -16 22 -30 35
-30 27z"/>
<path d="M9763 2026 c1 -17 9 -31 17 -33 10 -3 11 -2 4 4 -7 4 -14 19 -17 33
-4 22 -5 21 -4 -4z"/>
<path d="M10006 2027 c3 -8 1 -18 -5 -22 -6 -3 -11 -11 -11 -17 0 -7 6 -6 15
2 17 14 20 36 5 45 -5 3 -7 0 -4 -8z"/>
<path d="M8890 2010 c0 -11 5 -20 10 -20 6 0 10 9 10 20 0 11 -4 20 -10 20 -5
0 -10 -9 -10 -20z"/>
<path d="M9103 2013 c-30 -20 -29 -30 3 -36 20 -3 24 -1 19 11 -3 8 -1 19 6
22 6 4 7 10 3 13 -5 2 -19 -2 -31 -10z"/>
<path d="M9905 2019 c-4 -6 -5 -12 -2 -15 2 -3 7 2 10 11 7 17 1 20 -8 4z"/>
<path d="M9421 2006 c-7 -8 -8 -17 -3 -20 6 -3 13 1 16 10 9 23 2 28 -13 10z"/>
<path d="M9037 1993 c-4 -3 -7 -11 -7 -17 0 -6 5 -5 12 2 6 6 9 14 7 17 -3 3
-9 2 -12 -2z"/>
<path d="M9174 1986 c-10 -8 -15 -18 -11 -22 4 -5 11 -4 15 2 4 6 16 16 27 22
15 9 16 11 4 12 -8 0 -24 -6 -35 -14z"/>
<path d="M9230 1970 c0 -5 5 -10 11 -10 5 0 7 5 4 10 -3 6 -8 10 -11 10 -2 0
-4 -4 -4 -10z"/>
<path d="M9446 1955 c2 -5 15 -11 28 -11 19 -1 22 1 14 10 -14 14 -47 16 -42
1z"/>
<path d="M9585 1939 c-4 -6 -5 -12 -2 -15 2 -3 7 2 10 11 7 17 1 20 -8 4z"/>
<path d="M9810 1939 c0 -5 5 -7 10 -4 6 3 10 8 10 11 0 2 -4 4 -10 4 -5 0 -10
-5 -10 -11z"/>
<path d="M9060 1930 c0 -5 5 -10 10 -10 6 0 10 5 10 10 0 6 -4 10 -10 10 -5 0
-10 -4 -10 -10z"/>
<path d="M9955 1930 c3 -5 8 -10 11 -10 2 0 4 5 4 10 0 6 -5 10 -11 10 -5 0
-7 -4 -4 -10z"/>
<path d="M9880 1920 c0 -5 5 -10 10 -10 6 0 10 5 10 10 0 6 -4 10 -10 10 -5 0
-10 -4 -10 -10z"/>
<path d="M9742 1897 c-9 -11 -10 -17 -2 -22 15 -9 23 -1 18 21 -3 15 -4 16
-16 1z"/>
<path d="M9926 1894 c-4 -9 -4 -19 -1 -22 3 -3 5 0 5 6 0 7 7 12 15 12 8 0 15
5 15 10 0 16 -27 11 -34 -6z"/>
<path d="M9537 1877 c-6 -16 20 -40 28 -27 3 6 1 10 -6 10 -8 0 -6 5 5 13 16
12 16 13 -3 14 -10 1 -21 -4 -24 -10z"/>
<path d="M9595 1880 c-3 -6 1 -7 9 -4 18 7 21 14 7 14 -6 0 -13 -4 -16 -10z"/>
<path d="M9045 1870 c-3 -5 -13 -6 -21 -3 -12 4 -15 1 -13 -12 3 -12 14 -19
32 -19 34 -2 44 9 19 19 -16 7 -15 8 3 15 16 7 17 9 3 9 -9 1 -19 -3 -23 -9z"/>
<path d="M9117 1864 c6 -15 23 -19 23 -5 0 5 -7 11 -14 14 -10 4 -13 1 -9 -9z"/>
<path d="M9975 1860 c-3 -5 -2 -10 4 -10 5 0 13 5 16 10 3 6 2 10 -4 10 -5 0
-13 -4 -16 -10z"/>
<path d="M9730 1850 c0 -5 4 -10 9 -10 6 0 13 5 16 10 3 6 -1 10 -9 10 -9 0
-16 -4 -16 -10z"/>
<path d="M9646 1835 c-22 -17 -17 -29 7 -19 16 6 32 34 19 34 -4 0 -16 -7 -26
-15z"/>
<path d="M9920 1837 c-44 -16 -79 -36 -63 -37 15 0 103 38 103 45 0 6 2 7 -40
-8z"/>
<path d="M9941 1794 c0 -11 3 -14 6 -6 3 7 2 16 -1 19 -3 4 -6 -2 -5 -13z"/>
<path d="M6380 1773 c0 -13 5 -23 10 -23 13 0 13 11 0 30 -8 12 -10 11 -10 -7z"/>
<path d="M9863 1740 c0 -30 2 -43 4 -27 2 15 2 39 0 55 -2 15 -4 2 -4 -28z"/>
<path d="M9781 1780 c-8 -18 -9 -120 -1 -120 6 0 10 12 11 28 0 26 1 26 9 5
15 -36 20 -27 20 30 -1 40 -3 48 -11 34 -5 -9 -7 -22 -4 -27 3 -6 2 -10 -4
-10 -5 0 -12 15 -14 33 -2 17 -5 30 -6 27z"/>
<path d="M9839 1775 c-3 -5 -7 -32 -8 -60 -1 -39 1 -46 9 -32 6 9 10 36 8 60
-2 23 -6 38 -9 32z"/>
<path d="M9893 1745 c0 -22 2 -30 4 -17 2 12 2 30 0 40 -3 9 -5 -1 -4 -23z"/>
<path d="M9910 1749 c0 -5 5 -7 10 -4 6 3 10 8 10 11 0 2 -4 4 -10 4 -5 0 -10
-5 -10 -11z"/>
<path d="M9941 1744 c0 -11 3 -14 6 -6 3 7 2 16 -1 19 -3 4 -6 -2 -5 -13z"/>
<path d="M6400 1685 c0 -3 15 -26 34 -52 40 -56 160 -153 253 -205 111 -62
347 -130 436 -127 18 1 -4 7 -47 15 -191 32 -365 106 -511 216 -16 13 -60 54
-97 91 -38 37 -68 65 -68 62z"/>
<path d="M8240 1680 c0 -20 -139 -146 -216 -197 -45 -29 -119 -67 -163 -84
-45 -17 -80 -33 -78 -35 10 -10 188 70 258 117 97 63 239 209 204 209 -3 0 -5
-4 -5 -10z"/>
<path d="M8197 1673 c-4 -3 -7 -11 -7 -17 0 -6 5 -5 12 2 6 6 9 14 7 17 -3 3
-9 2 -12 -2z"/>
<path d="M6585 1550 c3 -5 10 -10 16 -10 5 0 9 5 9 10 0 6 -7 10 -16 10 -8 0
-12 -4 -9 -10z"/>
<path d="M7960 1510 c0 -5 5 -10 10 -10 6 0 10 5 10 10 0 6 -4 10 -10 10 -5 0
-10 -4 -10 -10z"/>
<path d="M4440 1460 c8 -5 22 -9 30 -9 10 0 8 3 -5 9 -27 12 -43 12 -25 0z"/>
<path d="M6930 1379 c0 -5 5 -7 10 -4 6 3 10 8 10 11 0 2 -4 4 -10 4 -5 0 -10
-5 -10 -11z"/>
<path d="M7290 1340 c0 -5 5 -10 11 -10 5 0 7 5 4 10 -3 6 -8 10 -11 10 -2 0
-4 -4 -4 -10z"/>
<path d="M7173 1293 c9 -2 25 -2 35 0 9 3 1 5 -18 5 -19 0 -27 -2 -17 -5z"/>
<path d="M9840 960 c0 -5 -35 -33 -77 -61 -93 -62 -88 -58 -81 -64 3 -3 22 5
42 17 50 32 144 117 129 118 -7 0 -13 -4 -13 -10z"/>
<path d="M9820 889 c0 -5 5 -7 10 -4 6 3 10 8 10 11 0 2 -4 4 -10 4 -5 0 -10
-5 -10 -11z"/>
<path d="M8324 868 c3 -15 0 -30 -5 -33 -5 -4 -10 6 -10 22 -1 23 -2 24 -6 6
-2 -13 3 -33 13 -45 12 -17 15 -18 10 -5 -4 13 -2 17 6 14 7 -2 12 -11 10 -19
-1 -9 5 -21 13 -28 8 -7 15 -9 15 -6 0 4 11 -4 24 -17 31 -31 201 -115 256
-126 25 -5 53 -12 63 -16 14 -6 16 -4 11 11 -11 30 -25 44 -37 37 -6 -4 -8 0
-5 8 4 11 -4 15 -36 16 -42 1 -101 25 -89 36 3 4 0 7 -8 7 -27 0 -99 45 -94
58 3 7 0 10 -5 7 -6 -4 -31 7 -57 24 -26 17 -50 31 -55 31 -5 0 -7 4 -4 8 2 4
0 14 -5 22 -7 11 -8 7 -5 -12z"/>
<path d="M9591 809 c-28 -16 -51 -34 -51 -40 0 -6 6 -6 19 1 23 12 26 7 30
-40 2 -19 4 -37 6 -38 10 -11 74 24 79 42 8 30 -4 94 -19 100 -7 2 -35 -9 -64
-25z"/>
<path d="M9505 760 c-3 -5 -1 -10 4 -10 6 0 11 5 11 10 0 6 -2 10 -4 10 -3 0
-8 -4 -11 -10z"/>
<path d="M8637 744 c-18 -18 -6 -31 24 -25 16 3 30 11 30 16 0 12 -44 19 -54
9z"/>
<path d="M9515 710 c-3 -5 -1 -10 4 -10 6 0 11 5 11 10 0 6 -2 10 -4 10 -3 0
-8 -4 -11 -10z"/>
<path d="M8800 684 c-21 -54 -9 -94 29 -94 14 0 41 -4 59 -9 30 -9 32 -8 27
12 -3 12 -6 39 -8 60 -4 44 -18 57 -65 57 -26 0 -34 -5 -42 -26z"/>
<path d="M9503 658 c1 -10 4 -18 8 -18 4 0 9 8 11 18 3 11 0 19 -8 19 -7 0
-12 -9 -11 -19z"/>
<path d="M8735 639 c-4 -6 -3 -15 3 -21 6 -6 11 -4 15 6 7 18 -9 31 -18 15z"/>
<path d="M9013 607 c1 -34 2 -35 15 -15 13 17 12 22 -1 35 -14 14 -15 12 -14
-20z"/>
<path d="M9140 630 l-25 -8 28 -1 c15 -1 27 4 27 9 0 6 -1 10 -2 9 -2 -1 -14
-5 -28 -9z"/>
<path d="M9245 630 c4 -6 11 -8 16 -5 14 9 11 15 -7 15 -8 0 -12 -5 -9 -10z"/>
<path d="M9180 602 c0 -10 -9 -12 -32 -8 -25 5 -28 4 -13 -3 11 -5 36 -10 55
-10 19 1 28 3 20 6 -8 3 -18 11 -22 17 -5 7 -8 7 -8 -2z"/>
</g>
</svg>
